<?xml version="1.0" encoding="utf-8"?>
<!DOCTYPE svg PUBLIC "-//W3C//DTD SVG 1.1//EN" "http://www.w3.org/Graphics/SVG/1.1/DTD/svg11.dtd">
<svg version="1.1" id="constellations" xmlns="http://www.w3.org/2000/svg" xmlns:xlink="http://www.w3.org/1999/xlink" x="0px"
	 y="0px" width="4040px" height="4040px" viewBox="0 0 4040 4040" style="enable-background:new 0 0 4040 4040;"
	 xml:space="preserve">
<style type="text/css">
<![CDATA[
	.st0{opacity:0.7;fill:#979797;enable-background:new    ;}
	.st1{fill:none;stroke:#676868;stroke-miterlimit:10;}
	.st2{opacity:0.7;fill:#FFFFFF;enable-background:new    ;}
]]>
</style>
<g id="draco">
	<line class="st1" x1="2282.839" y1="2858.658" x2="2360.13" y2="2825.4"/>
	<line class="st1" x1="2253.585" y1="2749.65" x2="2272.368" y2="2855.578"/>
	<line class="st1" x1="2586.87" y1="2208.102" x2="2482.995" y2="1975.306"/>
	
		<circle class="st2" cx="2270.796" cy="2863.376" r="16.013"/>
		<circle class="st0" cx="2275.368" cy="2865.905" r="4.927"/>
	
		<circle class="st2" cx="2587.81" cy="2213.585" r="8.622"/>
		<circle class="st0" cx="2592.722" cy="2217.3" r="4.927"/>
		
	<line class="st1" x1="1944.113" y1="2476.207" x2="2005.701" y2="2529.787"/>
	<line class="st1" x1="2013.707" y1="2536.869" x2="2250.198" y2="2742.26"/>
	<line class="st1" x1="2361.36" y1="2813.084" x2="2331.491" y2="2766.277"/>
	<line class="st1" x1="2324.536" y1="2762.201" x2="2254.817" y2="2745.031"/>
	<line class="st1" x1="2014.322" y1="2531.941" x2="2106.702" y2="2458.193"/>
	<line class="st1" x1="2110.55" y1="2448.955" x2="2106.548" y2="2418.623"/>
	<path class="st1" d="M2122.196,2458.643"/>
	<line class="st1" x1="2288.997" y1="2518.086" x2="2116.093" y2="2455.729"/>
	<line class="st1" x1="2299.159" y1="2521.164" x2="2435.263" y2="2526.398"/>
	<line class="st1" x1="2448.198" y1="2528.248" x2="2524.05" y2="2538.205"/>
	<line class="st1" x1="2532.878" y1="2537.383" x2="2609.655" y2="2444.389"/>
	<line class="st1" x1="2616.431" y1="2436.996" x2="2590.19" y2="2221.871"/>
	<line class="st1" x1="2480.53" y1="1967.092" x2="2464.929" y2="1857.88"/>
	<circle class="st2" cx="2363.706" cy="2818.75" r="12.934"/>
	<circle class="st2" cx="2441.81" cy="2528.479" r="12.933"/>
	<circle class="st2" cx="2293.589" cy="2521.07" r="12.934"/>
	<circle class="st2" cx="2010.219" cy="2538.381" r="12.934"/>
	<circle class="st2" cx="2328.86" cy="2762.119" r="8.621"/>
	<circle class="st2" cx="2252.702" cy="2746.828" r="8.623"/>
	<circle class="st2" cx="2110.685" cy="2453.14" r="8.622"/>
	<circle class="st2" cx="2527.349" cy="2538.514" r="8.621"/>
	<circle class="st2" cx="2612.149" cy="2441.112" r="8.622"/>
	<circle class="st2" cx="2104.88" cy="2415.079" r="8.622"/>
	<circle class="st2" cx="1941.355" cy="2474.86" r="8.62"/>
	<circle class="st2" cx="2481.396" cy="1972.465" r="8.622"/>
	<circle class="st2" cx="2462.62" cy="1853.55" r="8.623"/>
</g>
<g id="corona_borealis">
	<line class="st1" x1="3164.755" y1="2907.311" x2="3140.12" y2="2863.174"/>
	<line class="st1" x1="3137.86" y1="2959.248" x2="3160.444" y2="2935.023"/>
	
		<circle class="st2" cx="3164.204" cy="2922.037" r="16.012"/>
		<circle class="st0" cx="3168.776" cy="2924.567" r="4.927"/>
	
	<line class="st1" x1="2996.161" y1="3000.922" x2="3056.259" y2="3020.219"/>
	<line class="st1" x1="3063.649" y1="3021.656" x2="3101.218" y2="3004.926"/>
	<line class="st1" x1="3109.942" y1="2999.074" x2="3131.702" y2="2966.023"/>
	<line class="st1" x1="3131.909" y1="2859.479" x2="3083.255" y2="2850.24"/>
	<line class="st1" x1="3135.194" y1="2853.525" x2="3125.544" y2="2822.322"/>
	<circle class="st2" cx="3105.437" cy="3002.991" r="8.622"/>
	<circle class="st2" cx="3135.163" cy="2963.698" r="8.624"/>
	<circle class="st2" cx="3059.278" cy="3025.218" r="8.622"/>
	<circle class="st2" cx="2993.263" cy="3000.608" r="4.927"/>
	<circle class="st2" cx="3124.472" cy="2819.394" r="4.927"/>
	<circle class="st2" cx="3137.218" cy="2859.305" r="8.623"/>
	<circle class="st2" cx="3076.298" cy="2852.452" r="8.622"/>
</g>
<g id="coma_berenices">
	<line class="st1" x1="3410.585" y1="1839.712" x2="3440.763" y2="2097.35"/>
	<path class="st1" d="M3437.472,1835.477"/>
	<path class="st1" d="M3451.868,1845.439"/>
	<line class="st1" x1="3469.606" y1="1841.971" x2="3446.513" y2="2100.018"/>
	<line class="st1" x1="3444.354" y1="2101.248" x2="3449.181" y2="1838.892"/>
	<line class="st1" x1="3434.706" y1="1827.703" x2="3442.815" y2="2098.785"/>
	<line class="st1" x1="3448.255" y1="2097.965" x2="3675.765" y2="2026.012"/>
	<line class="st1" x1="3669.146" y1="2111" x2="3448.358" y2="2100.531"/>
	<circle class="st2" cx="3441.563" cy="2102.94" r="8.622"/>
	<circle class="st2" cx="3672.856" cy="2109.56" r="8.622"/>
	<circle class="st2" cx="3679.167" cy="2024.446" r="4.927"/>
	<circle class="st2" cx="3470.636" cy="1838.285" r="4.928"/>
	<circle class="st2" cx="3449.313" cy="1835.44" r="4.927"/>
	<circle class="st2" cx="3434.919" cy="1825.478" r="4.927"/>
	<circle class="st2" cx="3410.575" cy="1838.877" r="4.927"/>
</g>
<g id="leo">
	<line class="st1" x1="3657.136" y1="1505.915" x2="3446.511" y2="1339.17"/>
	<line class="st1" x1="3451.13" y1="1328.649" x2="3530.782" y2="1291.287"/>
	<line class="st1" x1="3255.284" y1="895.081" x2="3321.388" y2="840.065"/>
	<line class="st1" x1="3436.349" y1="1328.238" x2="3415.718" y2="1259.877"/>
	<line class="st1" x1="3412.331" y1="1253.719" x2="3261.444" y2="1024.412"/>
	<line class="st1" x1="3247.896" y1="1011.275" x2="3184.255" y2="1044.531"/>
	<line class="st1" x1="3251.181" y1="1005.936" x2="3249.126" y2="903.293"/>
	
		<circle class="st2" cx="3327.302" cy="833.783" r="18.476"/>
		<circle class="st0" cx="3333.397" cy="837.157" r="4.927"/>
	
		<circle class="st2" cx="3663.917" cy="1514.988" r="16.012"/>
		<circle class="st0" cx="3667.306" cy="1517.859" r="4.927"/>
	
		<circle class="st2" cx="3256.997" cy="1012.883" r="16.012"/>
		<circle class="st0" cx="3263.093" cy="1016.258" r="4.927"/>
	
		<circle class="st2" cx="3442.362" cy="1332.567" r="11.085"/>
		<circle class="st0" cx="3443.548" cy="1332.227" r="4.927"/>
	
	<line class="st1" x1="3759.573" y1="1240.889" x2="3680.077" y2="1292.364"/>
	<line class="st1" x1="3670.685" y1="1292.21" x2="3545.151" y2="1289.644"/>
	<line class="st1" x1="3543.099" y1="1282.664" x2="3503.786" y2="937.166"/>
	<line class="st1" x1="3536.53" y1="1281.433" x2="3254.874" y2="901.24"/>
	<line class="st1" x1="3173.169" y1="1040.425" x2="3027.413" y2="975.144"/>
	<line class="st1" x1="3025.36" y1="968.985" x2="3032.751" y2="915.2"/>
	<line class="st1" x1="3038.909" y1="907.81" x2="3242.146" y2="895.081"/>
	<line class="st1" x1="3253.231" y1="893.029" x2="3347.091" y2="706.355"/>
	<line class="st1" x1="3247.896" y1="893.029" x2="3208.89" y2="663.106"/>
	<line class="st1" x1="3022.487" y1="971.038" x2="2900.546" y2="863.878"/>
	<line class="st1" x1="2901.366" y1="857.719" x2="2969.933" y2="837.19"/>
	<line class="st1" x1="2975.269" y1="835.958" x2="3032.341" y2="905.756"/>
	<circle class="st2" cx="3023.122" cy="974.969" r="8.622"/>
	<circle class="st2" cx="2972.007" cy="837.148" r="8.622"/>
	<circle class="st2" cx="3207.61" cy="657.989" r="8.622"/>
	<circle class="st2" cx="3347.093" cy="706.355" r="4.927"/>
	<circle class="st2" cx="2898.103" cy="860.938" r="8.622"/>
	<circle class="st2" cx="3176.847" cy="1046.155" r="11.086"/>
	<circle class="st2" cx="3410.792" cy="1258.336" r="8.622"/>
	<circle class="st2" cx="3504.073" cy="931.669" r="8.622"/>
	<circle class="st2" cx="3764.54" cy="1236.192" r="8.622"/>
	<circle class="st2" cx="3674.274" cy="1296.717" r="8.622"/>
	<circle class="st2" cx="3248.55" cy="898.691" r="11.085"/>
	<circle class="st2" cx="3537.388" cy="1288.616" r="11.085"/>
	<circle class="st2" cx="3030.142" cy="910.159" r="11.085"/>
</g>
<g id="leo_minor">
	<line class="st1" x1="2797.597" y1="1084.409" x2="2948.071" y2="1182.331"/>
	<line class="st1" x1="2954.437" y1="1187.719" x2="3032.651" y2="1241.402"/>
	<line class="st1" x1="3036.501" y1="1243.403" x2="3107.376" y2="1353.387"/>
	<line class="st1" x1="3104.194" y1="1355.748" x2="2991.542" y2="1296.367"/>
	<line class="st1" x1="2989.233" y1="1289.747" x2="2951.665" y2="1192.133"/>
	<circle class="st2" cx="2794.864" cy="1082.767" r="4.927"/>
	<circle class="st2" cx="2947.956" cy="1187.455" r="8.622"/>
	<circle class="st2" cx="3033.306" cy="1243.676" r="4.927"/>
	<circle class="st2" cx="2988.708" cy="1293.649" r="8.622"/>
	<circle class="st2" cx="3106.388" cy="1359.809" r="8.621"/>
</g>
<g id="cygnus">
	<line class="st1" x1="1849.579" y1="3409.854" x2="1812.319" y2="3363.049"/>
	<line class="st1" x1="1606.93" y1="2958.119" x2="1642.341" y2="3076.674"/>
	<line class="st1" x1="1473.287" y1="3166.588" x2="1301.153" y2="3164.74"/>
	<line class="st1" x1="1733.181" y1="3233.102" x2="1650.348" y2="3096.381"/>
	<line class="st1" x1="1636.491" y1="3096.072" x2="1496.074" y2="3160.43"/>
	<line class="st1" x1="1656.198" y1="3086.219" x2="1836.03" y2="3031.098"/>
	<line class="st1" x1="1501.001" y1="2997.533" x2="1593.38" y2="2951.037"/>
	<line class="st1" x1="1727.331" y1="2956.58" x2="1620.786" y2="2949.496"/>
	<line class="st1" x1="1594.612" y1="2945.188" x2="1552.733" y2="2948.266"/>
	
		<circle class="st2" cx="1855.35" cy="3415.849" r="11.087"/>
		<circle class="st0" cx="1858.398" cy="3417.536" r="4.927"/>
	
		<circle class="st2" cx="1642.731" cy="3086.051" r="16.012"/>
		<circle class="st0" cx="1647.302" cy="3088.581" r="4.929"/>
	
		<circle class="st2" cx="1483.123" cy="3163.928" r="16.012"/>
		<circle class="st0" cx="1487.695" cy="3166.46" r="4.927"/>
	
		<circle class="st2" cx="1607.004" cy="2943.81" r="18.476"/>
		<circle class="st0" cx="1610.731" cy="2947.866" r="4.927"/>
	
	<line class="st1" x1="1809.548" y1="3358.738" x2="1739.032" y2="3242.34"/>
	<line class="st1" x1="1850.811" y1="3026.48" x2="1979.219" y2="2864.816"/>
	<line class="st1" x1="1973.676" y1="2861.736" x2="1930.257" y2="2890.99"/>
	<line class="st1" x1="1921.943" y1="2895.301" x2="1736.876" y2="2957.504"/>
	<line class="st1" x1="1297.458" y1="3157.967" x2="1493.918" y2="3003.385"/>
	<line class="st1" x1="1491.455" y1="2995.688" x2="1401.539" y2="2979.674"/>
	<line class="st1" x1="1394.457" y1="2982.754" x2="1379.676" y2="3013.547"/>
	<line class="st1" x1="1546.267" y1="2947.033" x2="1500.385" y2="2929.174"/>
	<circle class="st2" cx="1841.62" cy="3028.928" r="11.086"/>
	<circle class="st2" cx="1925.69" cy="2893.291" r="8.623"/>
	<circle class="st2" cx="1731.045" cy="2960.729" r="8.623"/>
	<circle class="st2" cx="1495.922" cy="2998.782" r="8.622"/>
	<circle class="st2" cx="1496.666" cy="2925.521" r="8.621"/>
	<circle class="st2" cx="1549.487" cy="2948.796" r="4.927"/>
	<circle class="st2" cx="1810.102" cy="3360.923" r="4.927"/>
	<circle class="st2" cx="1396.239" cy="2977.431" r="8.622"/>
	<circle class="st2" cx="1378.531" cy="3018.4" r="8.621"/>
	<circle class="st2" cx="1292.445" cy="3164.867" r="11.086"/>
	<circle class="st2" cx="1736.163" cy="3237.349" r="8.622"/>
	<circle class="st2" cx="1978.939" cy="2860.056" r="8.622"/>
</g>
<g id="equuleus">
	<line class="st1" x1="1063.328" y1="3550.375" x2="1041.978" y2="3539.904"/>
	<line class="st1" x1="1031.098" y1="3544.832" x2="967.562" y2="3620.48"/>
	<circle class="st2" cx="1068.296" cy="3553.47" r="8.622"/>
	<circle class="st2" cx="1034.947" cy="3539.981" r="8.622"/>
	<circle class="st2" cx="963.499" cy="3625.86" r="8.622"/>
</g>
<g id="delphinus">
	<line class="st1" x1="1335.488" y1="3597.848" x2="1348.883" y2="3629.102"/>
	<line class="st1" x1="1348.883" y1="3637.107" x2="1338.105" y2="3660.818"/>
	<line class="st1" x1="1333.948" y1="3660.357" x2="1306.388" y2="3572.75"/>
	<line class="st1" x1="1303.463" y1="3559.971" x2="1295.149" y2="3530.871"/>
	<line class="st1" x1="1299.46" y1="3525.021" x2="1333.332" y2="3546.883"/>
	<line class="st1" x1="1338.413" y1="3557.354" x2="1333.024" y2="3582.604"/>
	<circle class="st2" cx="1333.743" cy="3665.616" r="8.622"/>
	<circle class="st2" cx="1303.996" cy="3566.511" r="8.622"/>
	<circle class="st2" cx="1293.28" cy="3524.735" r="8.622"/>
	<circle class="st2" cx="1337.309" cy="3553.099" r="8.622"/>
	<circle class="st2" cx="1352.244" cy="3587.255" r="8.622"/>
	<circle class="st2" cx="1348.755" cy="3633.11" r="4.927"/>
	<circle class="st2" cx="1327.887" cy="3591.688" r="11.086"/>
</g>
<g id="aquila">
	<line class="st1" x1="1672.827" y1="3791.689" x2="1650.04" y2="3809.857"/>
	
		<circle class="st2" cx="1637.227" cy="3818.738" r="20.939"/>
		<circle class="st0" cx="1637.227" cy="3818.737" r="6.442"/>
	
	<line class="st1" x1="1514.543" y1="3988.373" x2="1566.282" y2="3983.84"/>
	<line class="st1" x1="1601.694" y1="3980.143" x2="1813.141" y2="3969.572"/>
	<line class="st1" x1="1869.164" y1="4047.354" x2="1827.1" y2="3977.373"/>
	<line class="st1" x1="1817.041" y1="3957.664" x2="1770.133" y2="3876.063"/>
	<line class="st1" x1="1759.971" y1="3865.285" x2="1688.963" y2="3792.506"/>
	<line class="st1" x1="1623.865" y1="3829.258" x2="1590.917" y2="3853.275"/>
	<line class="st1" x1="1828.948" y1="3959.41" x2="1988.148" y2="3751.504"/>
	<line class="st1" x1="2002.313" y1="3740.572" x2="2038.342" y2="3717.324"/>
	<circle class="st2" cx="1764.786" cy="3872.45" r="8.622"/>
	<circle class="st2" cx="2042.041" cy="3713.366" r="8.622"/>
	<circle class="st2" cx="1584.916" cy="3857.471" r="8.623"/>
	
		<circle class="st2" cx="1583.73" cy="3978.275" r="8.621"/>
		
			<path class="st2" d="M1602.671,3972.834c3,10.443-3.058,21.381-13.502,24.381c-10.445,3.002-21.383-3.055-24.382-13.5
				c-3-10.445,3.057-21.383,13.502-24.385C1588.735,3956.332,1599.672,3962.389,1602.671,3972.834z M1567.154,3983.035
				c2.626,9.139,12.197,14.438,21.335,11.813c9.14-2.625,14.439-12.193,11.813-21.332c-2.625-9.139-12.194-14.439-21.335-11.813
				C1569.831,3964.324,1564.531,3973.896,1567.154,3983.035z"/>
		
	
	<circle class="st2" cx="1678.632" cy="3784.419" r="12.933"/>
	<path class="st2" d="M1821.345,3956.047c7.142,0,12.933,5.789,12.933,12.932c0,7.146-5.791,12.934-12.933,12.934
		c-7.143,0-12.934-5.787-12.934-12.934C1808.411,3961.836,1814.202,3956.047,1821.345,3956.047z"/>
	<circle class="st2" cx="1993.273" cy="3746.595" r="12.933"/>
</g>
<g id="sagitta">
	<line class="st1" x1="1743.959" y1="3640.648" x2="1712.703" y2="3613.859"/>
	<line class="st1" x1="1715.321" y1="3614.32" x2="1773.212" y2="3627.717"/>
	<line class="st1" x1="1704.389" y1="3608.162" x2="1651.888" y2="3581.988"/>
	<circle class="st2" cx="1774.944" cy="3631.169" r="8.622"/>
	<circle class="st2" cx="1748.23" cy="3645.25" r="8.623"/>
	<circle class="st2" cx="1709.103" cy="3611.636" r="8.622"/>
	<circle class="st2" cx="1647.643" cy="3580.589" r="8.622"/>
</g>
<g id="vulpecula">
	<line class="st1" x1="1700.232" y1="3486.428" x2="1853.992" y2="3496.076"/>
	<circle class="st2" cx="1854.277" cy="3496.892" r="4.927"/>
	<circle class="st2" cx="1694.886" cy="3486.283" r="8.621"/>
</g>
<g id="virgo">
	<line class="st1" x1="3831.321" y1="2043.461" x2="3982.413" y2="2001.582"/>
	<line class="st1" x1="3988.778" y1="1995.218" x2="4079.624" y2="1889.41"/>
	<line class="st1" x1="4072.874" y1="1841.369" x2="3820.954" y2="1600.45"/>
	<line class="st1" x1="3819.415" y1="1594.599" x2="3820.032" y2="1441.25"/>
	<line class="st1" x1="3824.034" y1="1435.707" x2="3932.733" y2="1432.935"/>
	<line class="st1" x1="3941.665" y1="1435.707" x2="4026.562" y2="1566.329"/>
	<line class="st1" x1="3827.915" y1="2904.9" x2="3971.575" y2="2548.387"/>
	<line class="st1" x1="4012.567" y1="2584.029" x2="3978.925" y2="2542.721"/>
	<line class="st1" x1="3978.993" y1="2529.596" x2="4068.636" y2="2301.713"/>
	<line class="st1" x1="4068.636" y1="2301.713" x2="3988.778" y2="2004.763"/>
	<circle class="st2" cx="3825.714" cy="2043.871" r="11.086"/>
	<circle class="st2" cx="3973.255" cy="2539.735" r="8.622"/>
	<circle class="st2" cx="3820.653" cy="2914.194" r="8.622"/>
	<circle class="st2" cx="3985.876" cy="1999.153" r="8.622"/>
	<circle class="st2" cx="3817.993" cy="1597.557" r="8.622"/>
	<circle class="st2" cx="3819.634" cy="1438.176" r="8.622"/>
	<circle class="st2" cx="3935.187" cy="1434.465" r="8.622"/>
</g>
<g id="lacerta">
	<line class="st1" x1="1147.188" y1="2809.389" x2="1187.013" y2="2788.039"/>
	<line class="st1" x1="1191.53" y1="2784.139" x2="1194.609" y2="2688.063"/>
	<line class="st1" x1="1195.225" y1="2681.289" x2="1286.989" y2="2661.992"/>
	<line class="st1" x1="1290.684" y1="2656.654" x2="1287.399" y2="2615.598"/>
	<line class="st1" x1="1285.551" y1="2610.67" x2="1192.352" y2="2629.967"/>
	<line class="st1" x1="1189.066" y1="2635.305" x2="1192.556" y2="2679.236"/>
	<line class="st1" x1="1294.995" y1="2609.85" x2="1322.072" y2="2605.787"/>
	<line class="st1" x1="1335.436" y1="2603.281" x2="1373.363" y2="2569.818"/>
	<line class="st1" x1="1375.467" y1="2566.535" x2="1336.874" y2="2536.357"/>
	<line class="st1" x1="1332.768" y1="2537.383" x2="1292.326" y2="2606.564"/>
	<circle class="st2" cx="1143.917" cy="2812.819" r="8.622"/>
	<circle class="st2" cx="1187.532" cy="2786.196" r="8.622"/>
	<circle class="st2" cx="1193.821" cy="2683.149" r="8.622"/>
	<circle class="st2" cx="1291.073" cy="2660.345" r="8.622"/>
	<circle class="st2" cx="1289.991" cy="2611.956" r="8.622"/>
	<circle class="st2" cx="1190.534" cy="2631.551" r="8.623"/>
	<circle class="st2" cx="1330.419" cy="2605.472" r="8.622"/>
	<circle class="st2" cx="1373.681" cy="2568.698" r="4.927"/>
	<circle class="st2" cx="1333.706" cy="2536.606" r="4.927"/>
</g>
<g id="triangulum">
	<line class="st1" x1="845.723" y1="1648.795" x2="823.86" y2="1614.614"/>
	<line class="st1" x1="818.009" y1="1616.77" x2="703.458" y2="1707.301"/>
	<line class="st1" x1="703.151" y1="1709.458" x2="836.177" y2="1659.265"/>
	<circle class="st2" cx="820.126" cy="1614.042" r="8.622"/>
	<circle class="st2" cx="700.983" cy="1712.336" r="8.623"/>
	<circle class="st2" cx="842.266" cy="1657.662" r="12.933"/>
</g>
<g id="cepheus">
	<line class="st1" x1="1700.643" y1="2552.164" x2="1750.938" y2="2602.664"/>
	<line class="st1" x1="1588.146" y1="2568.895" x2="1678.985" y2="2549.803"/>
	
		<circle class="st2" cx="1689.954" cy="2547.704" r="12.933"/>
		<circle class="st0" cx="1689.954" cy="2547.704" r="7.39"/>
	
	<line class="st1" x1="1697.153" y1="2539.332" x2="1765.718" y2="2396.965"/>
	<line class="st1" x1="1762.229" y1="2604.1" x2="1802.466" y2="2594.043"/>
	<line class="st1" x1="1770.235" y1="2383.006" x2="1779.987" y2="2130.707"/>
	<line class="st1" x1="1769.055" y1="2128.398" x2="1585.528" y2="2319.162"/>
	<line class="st1" x1="1481.601" y1="2461.426" x2="1579.37" y2="2327.168"/>
	<line class="st1" x1="1508.083" y1="2509.154" x2="1484.373" y2="2472.82"/>
	<line class="st1" x1="1481.909" y1="2524.859" x2="1505.928" y2="2519.01"/>
	<line class="st1" x1="1516.705" y1="2515.93" x2="1599.847" y2="2522.398"/>
	<line class="st1" x1="1481.293" y1="2532.25" x2="1558.584" y2="2566.738"/>
	
			
				<rect x="1550.801" y="2568.978" transform="matrix(0.276 0.9612 -0.9612 0.276 3609.6033 348.3213)" class="st2" width="45.571" height="2.463"/>
		
		
			<path class="st2" d="M1589.115,2565.063c2.437,8.484-2.485,17.373-10.97,19.811c-8.486,2.438-17.373-2.484-19.81-10.969
				c-2.437-8.488,2.484-17.373,10.97-19.813C1577.79,2551.654,1586.677,2556.576,1589.115,2565.063z M1560.701,2573.223
				c2.062,7.18,9.583,11.344,16.763,9.283c7.181-2.064,11.344-9.584,9.282-16.766c-2.062-7.178-9.582-11.342-16.762-9.279
				C1562.804,2558.521,1558.639,2566.041,1560.701,2573.223z"/>
		
		
			<circle class="st0" cx="1573.827" cy="2569.454" r="7.39"/>
	
			
				<rect x="1447.191" y="2470.479" transform="matrix(0.276 0.9612 -0.9612 0.276 3439.9929 376.6606)" class="st2" width="45.575" height="2.463"/>
		
			<path class="st2" d="M1485.266,2466.736c2.438,8.488-2.484,17.373-10.968,19.811c-8.488,2.438-17.375-2.482-19.811-10.969
				c-2.438-8.488,2.484-17.373,10.97-19.811C1473.941,2453.328,1482.828,2458.25,1485.266,2466.736z M1456.853,2474.896
				c2.063,7.18,9.581,11.346,16.762,9.281c7.18-2.061,11.344-9.578,9.282-16.76c-2.062-7.182-9.583-11.346-16.761-9.285
				C1458.955,2460.197,1454.791,2467.717,1456.853,2474.896z"/>
		
			<circle class="st0" cx="1469.977" cy="2471.127" r="7.391"/>
		
	<circle class="st2" cx="1766.802" cy="2389.152" r="11.086"/>
	<circle class="st2" cx="1774.73" cy="2126.727" r="11.086"/>
	<circle class="st2" cx="1579.754" cy="2322.411" r="8.622"/>
	<circle class="st2" cx="1606.423" cy="2522.356" r="8.622"/>
	<circle class="st2" cx="1510.82" cy="2515.214" r="8.622"/>
	<circle class="st2" cx="1477.849" cy="2529.81" r="8.622"/>
	<circle class="st2" cx="1755.762" cy="2605.056" r="8.622"/>
	<circle class="st2" cx="1806.506" cy="2594.324" r="8.621"/>
</g>
<g id="canes_venatici">
	<line class="st1" x1="3204.015" y1="2009.228" x2="3129.341" y2="1916.541"/>
	<circle class="st2" cx="3125.931" cy="1914.221" r="8.624"/>
	
		<circle class="st2" cx="3208.294" cy="2013.592" r="11.086"/>
		
			<rect x="3191.601" y="2011.978" transform="matrix(0.276 0.9612 -0.9612 0.276 4258.7949 -1626.2021)" class="st2" width="34.491" height="3.694"/>
	
</g>
<g id="lynx">
	<line class="st1" x1="2762.802" y1="1001.009" x2="2732.214" y2="1030.571"/>
	<line class="st1" x1="2714.978" y1="1032.183" x2="2666.726" y2="1035.498"/>
	<line class="st1" x1="2654.819" y1="1037.757" x2="2582.968" y2="1077.583"/>
	<line class="st1" x1="2570.241" y1="1079.43" x2="2419.97" y2="1040.836"/>
	<line class="st1" x1="2407.448" y1="1042.478" x2="2137.495" y2="1107.452"/>
	<line class="st1" x1="2131.183" y1="1108.529" x2="2105.933" y2="1110.377"/>
	<line class="st1" x1="2100.851" y1="1114.072" x2="2023.561" y2="1296.83"/>
	<line class="st1" x1="2016.633" y1="1304.835" x2="1984.299" y2="1335.475"/>
	<line class="st1" x1="1978.91" y1="1337.014" x2="1918.094" y2="1334.551"/>
	<circle class="st2" cx="1911.36" cy="1335.233" r="8.622"/>
	<circle class="st2" cx="2021.119" cy="1302.427" r="8.622"/>
	<circle class="st2" cx="2577.79" cy="1081.036" r="8.622"/>
	<circle class="st2" cx="2661.14" cy="1036.592" r="8.622"/>
	<circle class="st2" cx="2768.015" cy="998.208" r="8.622"/>
	<circle class="st2" cx="2412.944" cy="1042.519" r="8.622"/>
	<circle class="st2" cx="1982.594" cy="1337.842" r="4.927"/>
	<circle class="st2" cx="2102.067" cy="1111.3" r="4.927"/>
	<circle class="st2" cx="2134.208" cy="1107.195" r="4.927"/>
	
		<circle class="st2" cx="2724.411" cy="1033.798" r="11.086"/>
		
			<rect x="2707.697" y="1032.2" transform="matrix(0.276 0.9612 -0.9612 0.276 2966.7183 -1870.4512)" class="st2" width="34.49" height="3.694"/>
	
</g>
<g id="ursa_major">
	<line class="st1" x1="2949.612" y1="2216.93" x2="2944.069" y2="1743.125"/>
	<line class="st1" x1="2832.394" y1="2122.701" x2="2934.626" y2="2220.83"/>
	<line class="st1" x1="2804.476" y1="2023.342" x2="2820.075" y2="2103.404"/>
	<line class="st1" x1="2769.987" y1="1897.295" x2="2802.011" y2="2001.171"/>
	<line class="st1" x1="2772.038" y1="1883.335" x2="2821.308" y2="1806.559"/>
	<line class="st1" x1="2703.474" y1="1651.362" x2="2825.415" y2="1790.546"/>
	<line class="st1" x1="2600.778" y1="1726.547" x2="2753.435" y2="1875.166"/>
	<line class="st1" x1="2597.698" y1="1708.996" x2="2681.302" y2="1650.181"/>
	<line class="st1" x1="2422.177" y1="1549.487" x2="2584.456" y2="1710.073"/>
	
		<circle class="st2" cx="2943.472" cy="2229.337" r="16.013"/>
		<circle class="st0" cx="2948.042" cy="2231.868" r="4.927"/>
	
		<circle class="st2" cx="2825.896" cy="2114.448" r="16.013"/>
		<circle class="st0" cx="2830.466" cy="2116.979" r="4.927"/>
	
		<circle class="st2" cx="2828.333" cy="1797.213" r="16.013"/>
		<circle class="st0" cx="2832.905" cy="1799.745" r="4.927"/>
	
		<circle class="st2" cx="2759.769" cy="1888.671" r="16.012"/>
		<circle class="st0" cx="2764.339" cy="1891.202" r="4.927"/>
	
		<circle class="st2" cx="2692.772" cy="1646.482" r="16.012"/>
		<circle class="st0" cx="2697.343" cy="1649.014" r="4.927"/>
	
		<circle class="st2" cx="2589.157" cy="1718.532" r="16.013"/>
		<circle class="st0" cx="2593.729" cy="1721.063" r="4.927"/>
	
		<circle class="st2" cx="2798.681" cy="2010.772" r="17.244"/>
		<circle class="st0" cx="2805.96" cy="2013.808" r="4.927"/>
	
	<line class="st1" x1="2944.685" y1="1733.271" x2="2959.876" y2="1562.473"/>
	<line class="st1" x1="2967.474" y1="1550.156" x2="3202.526" y2="1481.792"/>
	<line class="st1" x1="3211.56" y1="1479.329" x2="3227.776" y2="1475.225"/>
	<line class="st1" x1="3230.036" y1="1470.708" x2="2901.882" y2="1338.298"/>
	<line class="st1" x1="2889.874" y1="1334.809" x2="2865.2" y2="1334.73"/>
	<line class="st1" x1="2851.073" y1="1334.397" x2="2582.353" y2="1347.638"/>
	<line class="st1" x1="2570.138" y1="1358.211" x2="2522.411" y2="1508.378"/>
	<line class="st1" x1="2515.019" y1="1511.766" x2="2422.946" y2="1543.482"/>
	<line class="st1" x1="2416.325" y1="1542.558" x2="2305.778" y2="1423.697"/>
	<line class="st1" x1="2301.007" y1="1410.148" x2="2499.468" y2="1211.533"/>
	<line class="st1" x1="2508.858" y1="1203.218" x2="2531.03" y2="1203.218"/>
	<line class="st1" x1="2542.425" y1="1205.835" x2="2891.517" y2="1332.857"/>
	<circle class="st2" cx="2535.999" cy="1203.25" r="8.622"/>
	<circle class="st2" cx="2857.134" cy="1335.282" r="8.622"/>
	<circle class="st2" cx="2941.948" cy="1737.67" r="8.622"/>
	<circle class="st2" cx="2519.165" cy="1510.523" r="8.622"/>
	<circle class="st2" cx="2503.519" cy="1206.169" r="11.086"/>
	<circle class="st2" cx="2300.784" cy="1419.462" r="11.086"/>
	<circle class="st2" cx="2576.134" cy="1351.913" r="11.086"/>
	<circle class="st2" cx="2894.868" cy="1337.261" r="11.085"/>
	<circle class="st2" cx="2962.845" cy="1556.101" r="11.085"/>
	
	
		<circle class="st2" cx="2419.052" cy="1545.683" r="8.622"/>
		
			<rect x="2402.046" y="1544.224" transform="matrix(0.2761 0.9611 -0.9611 0.2761 3237.3269 -1206.0388)" class="st2" width="34.487" height="3.694"/>
	
		<circle class="st2" cx="3207.388" cy="1479.458" r="7.39"/>
		
			<rect x="3194.175" y="1478.388" transform="matrix(0.2762 0.9611 -0.9611 0.2762 3743.6755 -2010.3408)" class="st2" width="24.634" height="3.695"/>
	
		<circle class="st2" cx="3236.483" cy="1473.665" r="11.085"/>
		
			<rect x="3219.44" y="1472.243" transform="matrix(0.2761 0.9611 -0.9611 0.2761 3759.8779 -2043.7683)" class="st2" width="34.487" height="3.694"/>
	
</g>
<g id="serpens">
	<line class="st1" x1="3460.214" y1="3326.404" x2="3460.829" y2="3265.59"/>
	
		<circle class="st2" cx="3458.888" cy="3256.458" r="11.085"/>
		<circle class="st0" cx="3460.753" cy="3258.485" r="4.927"/>
	
	<line class="st1" x1="3364.823" y1="3565.891" x2="3321.183" y2="3569.67"/>
	<line class="st1" x1="3318.103" y1="3569.363" x2="3458.366" y2="3339.955"/>
	<path class="st1" d="M3460.331,3320.602"/>
	<line class="st1" x1="3435.733" y1="3258.352" x2="3435.733" y2="3152.424"/>
	<line class="st1" x1="3432.653" y1="3143.803" x2="3305.94" y2="3142.877"/>
	<line class="st1" x1="3297.011" y1="3145.496" x2="3246.253" y2="3187.734"/>
	<line class="st1" x1="3243.173" y1="3186.912" x2="3243.995" y2="3127.174"/>
	<line class="st1" x1="3245.431" y1="3116.5" x2="3253.593" y2="3056.965"/>
	<line class="st1" x1="3246.354" y1="3054.348" x2="3186.001" y2="3079.752"/>
	<line class="st1" x1="3179.38" y1="3082.984" x2="3108.71" y2="3113.471"/>
	<circle class="st2" cx="3436.733" cy="3264.103" r="8.622"/>
	<circle class="st2" cx="3242.911" cy="3191.619" r="8.623"/>
	<circle class="st2" cx="3243.491" cy="3122.249" r="8.622"/>
	<circle class="st2" cx="3459.165" cy="3333.271" r="8.622"/>
	<circle class="st2" cx="3315.005" cy="3572.029" r="7.391"/>
	<circle class="st2" cx="3251.856" cy="3053.207" r="8.621"/>
	<circle class="st2" cx="3182.866" cy="3080.714" r="4.927"/>
	<circle class="st2" cx="3106.606" cy="3114.147" r="4.927"/>
	
		<circle class="st2" cx="3300.204" cy="3145.688" r="8.622"/>
		
			<rect x="3283.088" y="3144.189" transform="matrix(0.2761 0.9611 -0.9611 0.2761 5412.6807 -894.7207)" class="st2" width="34.487" height="3.697"/>
	
		<circle class="st2" cx="3437.759" cy="3147.19" r="8.622"/>
		
			<rect x="3420.635" y="3145.698" transform="matrix(0.2761 0.9611 -0.9611 0.2761 5513.9209 -1025.7139)" class="st2" width="34.487" height="3.693"/>
	
</g>
<g id="Bootes">
	<line class="st1" x1="3559.368" y1="2538.717" x2="3604.687" y2="2422.42"/>
	<line class="st1" x1="3559.521" y1="2571.049" x2="3596.628" y2="2754.422"/>
	<line class="st1" x1="3110.763" y1="2748.418" x2="3299.011" y2="2674.926"/>
	<line class="st1" x1="3313.485" y1="2666.508" x2="3541.97" y2="2560.58"/>
	<line class="st1" x1="3309.944" y1="2663.121" x2="3294.394" y2="2584.6"/>
	
		<circle class="st2" cx="3554.358" cy="2553.679" r="20.94"/>
		<circle class="st0" cx="3560.454" cy="2557.054" r="4.927"/>
	
		<circle class="st2" cx="3304.624" cy="2670.257" r="11.085"/>
		<circle class="st0" cx="3306.489" cy="2672.286" r="4.927"/>
	
	<line class="st1" x1="3291.005" y1="2576.131" x2="3280.997" y2="2557.963"/>
	<line class="st1" x1="3271.45" y1="2552.727" x2="3122.104" y2="2491.141"/>
	<line class="st1" x1="3110.558" y1="2495.914" x2="3006.323" y2="2595.992"/>
	<line class="st1" x1="3006.169" y1="2604.307" x2="3103.372" y2="2742.67"/>
	<line class="st1" x1="3099.677" y1="2748.418" x2="3006.478" y2="2739.797"/>
	<line class="st1" x1="3001.962" y1="2738.975" x2="3003.552" y2="2606"/>
	<line class="st1" x1="3111.327" y1="2483.598" x2="2983.997" y2="2358.422"/>
	<line class="st1" x1="2976.454" y1="2354.881" x2="2842.042" y2="2344.719"/>
	<line class="st1" x1="2843.581" y1="2338.869" x2="2857.13" y2="2311.002"/>
	<line class="st1" x1="2866.292" y1="2308.076" x2="2875.3" y2="2311.361"/>
	<line class="st1" x1="2884.228" y1="2315.313" x2="2976.608" y2="2352.418"/>
	<line class="st1" x1="3590.083" y1="2761.506" x2="3460.778" y2="2778.699"/>
	<line class="st1" x1="3451.13" y1="2776.439" x2="3343.046" y2="2681.289"/>
	<line class="st1" x1="3613.103" y1="2412.156" x2="3670.173" y2="2391.422"/>
	<line class="st1" x1="3673.253" y1="2385.059" x2="3646.589" y2="2365.771"/>
	<circle class="st2" cx="3672.735" cy="2390.245" r="8.622"/>
	<circle class="st2" cx="3640.886" cy="2359.667" r="8.622"/>
	<circle class="st2" cx="3595.587" cy="2759.695" r="8.621"/>
	<circle class="st2" cx="3294.009" cy="2579.754" r="8.623"/>
	
			<path class="st2" d="M3345.909,2671.215c1.873,6.529-1.914,13.365-8.441,15.24c-6.527,1.871-13.363-1.912-15.238-8.439
				c-1.873-6.529,1.912-13.365,8.439-15.24C3337.198,2660.902,3344.034,2664.686,3345.909,2671.215z M3324.599,2677.336
				c1.5,5.223,6.967,8.25,12.189,6.75c5.223-1.502,8.25-6.969,6.748-12.191c-1.498-5.221-6.965-8.25-12.188-6.75
				C3326.128,2666.645,3323.101,2672.113,3324.599,2677.336z"/>
		
		<circle class="st2" cx="3334.269" cy="2674.56" r="6.159"/>
	
	<circle class="st2" cx="3275.874" cy="2556.771" r="8.622"/>
	<circle class="st2" cx="3000.685" cy="2740.89" r="8.622"/>
	<circle class="st2" cx="3106.44" cy="2747.681" r="11.085"/>
	<circle class="st2" cx="3113.36" cy="2490.671" r="11.085"/>
	<circle class="st2" cx="3607.296" cy="2416.73" r="11.086"/>
	<circle class="st2" cx="3003.874" cy="2600.288" r="8.622"/>
	<circle class="st2" cx="2978.667" cy="2356.351" r="8.622"/>
	<circle class="st2" cx="2840.083" cy="2342.329" r="8.622"/>
	<circle class="st2" cx="2857.966" cy="2306.435" r="8.622"/>
	
		<path class="st2" d="M3454.507,2768.527c4.76,0,8.619,3.859,8.619,8.621s-3.859,8.621-8.619,8.621
			c-4.764,0-8.621-3.859-8.621-8.621S3449.743,2768.527,3454.507,2768.527z"/>
		
			<rect x="3437.399" y="2775.673" transform="matrix(0.2761 0.9611 -0.9611 0.2761 5170.415 -1309.6914)" class="st2" width="34.487" height="3.694"/>
	
		<circle class="st2" cx="2880.313" cy="2313.982" r="5.695"/>
		
			<rect x="2869.771" y="2311.825" transform="matrix(-0.4844 0.8749 -0.8749 -0.4844 6299.5244 914.6145)" class="st2" width="20.939" height="3.697"/>
	
</g>
<g id="andromeda">
	<line class="st1" x1="951.959" y1="1845.871" x2="995.377" y2="1747.949"/>
	<line class="st1" x1="683.751" y1="2333.326" x2="698.839" y2="2156.729"/>
	<line class="st1" x1="794.914" y1="1989.212" x2="704.69" y2="2141.332"/>
	<line class="st1" x1="773.821" y1="2149.184" x2="804.768" y2="1992.138"/>
	<line class="st1" x1="814.93" y1="1969.043" x2="941.769" y2="1855.752"/>
	<line class="st1" x1="816.931" y1="1981.515" x2="859.17" y2="2038.533"/>
	
		<circle class="st2" cx="995.574" cy="1734.093" r="16.012"/>
		<circle class="st0" cx="1000.145" cy="1736.626" r="4.927"/>
	
		<circle class="st2" cx="802.863" cy="1977.825" r="16.012"/>
		<circle class="st0" cx="807.435" cy="1980.356" r="4.927"/>
	
		<circle class="st2" cx="680.537" cy="2346.153" r="16.013"/>
		<circle class="st0" cx="685.11" cy="2348.685" r="4.927"/>
	
	<line class="st1" x1="1248.497" y1="2460.299" x2="1228.79" y2="2447.879"/>
	<line class="st1" x1="1225.71" y1="2445.928" x2="1198.818" y2="2428.992"/>
	<line class="st1" x1="1194.711" y1="2426.836" x2="1123.631" y2="2382.904"/>
	<line class="st1" x1="1112.854" y1="2382.441" x2="1074.67" y2="2384.598"/>
	<line class="st1" x1="1064.662" y1="2389.164" x2="1040.438" y2="2406.613"/>
	<line class="st1" x1="1039.617" y1="2414.826" x2="1094.429" y2="2568.586"/>
	<line class="st1" x1="1036.948" y1="2405.178" x2="889.757" y2="2256.344"/>
	<line class="st1" x1="874.977" y1="2229.246" x2="883.598" y2="2247.414"/>
	<line class="st1" x1="870.666" y1="2225.551" x2="776.13" y2="2159.346"/>
	<line class="st1" x1="710.695" y1="2149.492" x2="764.891" y2="2154.881"/>
	<line class="st1" x1="692.835" y1="2149.492" x2="667.919" y2="2151.621"/>
	<line class="st1" x1="654.498" y1="2150.262" x2="562.625" y2="2110.738"/>
	<line class="st1" x1="553.291" y1="2102.172" x2="524.14" y2="2051.057"/>
	<line class="st1" x1="867.792" y1="2045.924" x2="917.471" y2="2076.512"/>
	<line class="st1" x1="926.503" y1="2078.154" x2="1060.454" y2="1992.344"/>
	<line class="st1" x1="1070.205" y1="1983.824" x2="1113.623" y2="1879.744"/>
	<circle class="st2" cx="1117.608" cy="2382.095" r="8.622"/>
	<circle class="st2" cx="1069.899" cy="2385.546" r="8.622"/>
	<circle class="st2" cx="1037.28" cy="2410.291" r="8.623"/>
	<circle class="st2" cx="1094.694" cy="2574.497" r="8.622"/>
	<circle class="st2" cx="886.48" cy="2251.122" r="8.622"/>
	<circle class="st2" cx="872.239" cy="2228.302" r="4.927"/>
	<circle class="st2" cx="863.691" cy="2042.372" r="8.622"/>
	<circle class="st2" cx="921.775" cy="2079.515" r="8.622"/>
	<circle class="st2" cx="1064.444" cy="1987.278" r="8.622"/>
	<circle class="st2" cx="1113.691" cy="1873.174" r="8.622"/>
	<circle class="st2" cx="946.667" cy="1849.379" r="8.622"/>
	<circle class="st2" cx="660.983" cy="2153.134" r="8.622"/>
	<circle class="st2" cx="700.907" cy="2149.355" r="11.086"/>
	<circle class="st2" cx="556.869" cy="2107.427" r="8.622"/>
	<circle class="st2" cx="522.274" cy="2049.441" r="4.928"/>
	<circle class="st2" cx="1249.177" cy="2460.925" r="4.927"/>
	<circle class="st2" cx="1227.504" cy="2447.927" r="4.927"/>
	<circle class="st2" cx="1197.528" cy="2428.343" r="4.929"/>
	
		<circle class="st2" cx="771.977" cy="2155.855" r="8.621"/>
		
			<rect x="756.964" y="2155.284" transform="matrix(0.276 0.9612 -0.9612 0.276 2631.4932 819.5472)" class="st2" width="29.56" height="2.465"/>
	
</g>
<g id="pisces">
	<line class="st1" x1="557.825" y1="1942.316" x2="663.498" y2="1951.052"/>
	<line class="st1" x1="664.043" y1="1947.027" x2="628.016" y2="1910.537"/>
	<line class="st1" x1="616.16" y1="1912.384" x2="556.717" y2="1936.226"/>
	<line class="st1" x1="547.953" y1="1946.36" x2="489.856" y2="1987.623"/>
	<line class="st1" x1="488.215" y1="1985.364" x2="479.592" y2="1948.412"/>
	<line class="st1" x1="478.361" y1="1944.101" x2="445.152" y2="1855.656"/>
	<line class="st1" x1="364.734" y1="1805.224" x2="435.558" y2="1845.255"/>
	<line class="st1" x1="355.497" y1="1796.91" x2="245.565" y2="1666.758"/>
	<line class="st1" x1="238.79" y1="1657.725" x2="145.589" y2="1497.601"/>
	<line class="st1" x1="137.378" y1="1498.833" x2="120.75" y2="1564.934"/>
	<line class="st1" x1="118.902" y1="1570.684" x2="155.957" y2="1681.282"/>
	<line class="st1" x1="155.957" y1="1686.054" x2="151.184" y2="1770.89"/>
	<line class="st1" x1="151.337" y1="1777.972" x2="174.74" y2="1988.134"/>
	<line class="st1" x1="173.817" y1="1999.529" x2="171.796" y2="2110.854"/>
	<line class="st1" x1="172.585" y1="2122.701" x2="219.698" y2="2523.629"/>
	<line class="st1" x1="222.162" y1="2536.869" x2="244.949" y2="2690.529"/>
	<line class="st1" x1="248.028" y1="2696.891" x2="303.046" y2="2770.59"/>
	<line class="st1" x1="304.071" y1="2785.371" x2="272.586" y2="2879.059"/>
	<line class="st1" x1="266.35" y1="2880.982" x2="199.375" y2="2829.096"/>
	<line class="st1" x1="195.27" y1="2823.76" x2="157.906" y2="2707.566"/>
	<line class="st1" x1="162.629" y1="2698.943" x2="237.353" y2="2695.043"/>
	<line class="st1" x1="273.74" y1="2889.297" x2="329.916" y2="2971.285"/>
	<circle class="st2" cx="171.804" cy="1993.754" r="8.623"/>
	<circle class="st2" cx="666.115" cy="1947.898" r="4.927"/>
	<circle class="st2" cx="477.127" cy="1945.79" r="4.927"/>
	<circle class="st2" cx="486.66" cy="1987.905" r="4.927"/>
	<circle class="st2" cx="151.03" cy="1774.172" r="4.927"/>
	<circle class="st2" cx="197.147" cy="2827.151" r="4.927"/>
	<circle class="st2" cx="155.98" cy="1684.325" r="4.927"/>
	<circle class="st2" cx="118.768" cy="1568.142" r="4.927"/>
	<circle class="st2" cx="622.074" cy="1910.568" r="8.622"/>
	<circle class="st2" cx="440.278" cy="1848.727" r="8.622"/>
	<circle class="st2" cx="361.2" cy="1800.953" r="8.622"/>
	<circle class="st2" cx="239.872" cy="1664.077" r="8.622"/>
	<circle class="st2" cx="172.82" cy="2117.77" r="8.621"/>
	<circle class="st2" cx="220.933" cy="2530.697" r="8.621"/>
	<circle class="st2" cx="242.817" cy="2696.135" r="8.621"/>
	<circle class="st2" cx="303.67" cy="2778.616" r="8.622"/>
	<circle class="st2" cx="270.319" cy="2885.591" r="8.622"/>
	<circle class="st2" cx="332.028" cy="2975.517" r="8.622"/>
	<circle class="st2" cx="158.398" cy="2701.157" r="8.622"/>
	<circle class="st2" cx="139.815" cy="1494.177" r="8.622"/>
	
		<circle class="st2" cx="551.735" cy="1942.303" r="8.622"/>
		
			<rect x="536.723" y="1941.712" transform="matrix(0.276 0.9612 -0.9612 0.276 2266.751 876.5922)" class="st2" width="29.559" height="2.463"/>
	
</g>
<g id="cetus">
	<line class="st1" x1="355.188" y1="1036.319" x2="271.225" y2="1168.525"/>
	<line class="st1" x1="439.355" y1="1107.965" x2="364.836" y2="1037.346"/>
	
		<circle class="st2" cx="359.796" cy="1028.601" r="11.085"/>
		<circle class="st0" cx="362.845" cy="1030.287" r="4.927"/>
	
	<line class="st1" x1="328.706" y1="1337.066" x2="405.483" y2="1235.243"/>
	<line class="st1" x1="412.463" y1="1226.621" x2="440.793" y2="1113.714"/>
	<line class="st1" x1="269.994" y1="1178.995" x2="284.774" y2="1250.845"/>
	<line class="st1" x1="287.443" y1="1256.388" x2="326.858" y2="1335.628"/>
	<line class="st1" x1="264.247" y1="1173.862" x2="209.639" y2="1183.922"/>
	<circle class="st2" cx="408.631" cy="1229.868" r="8.622"/>
	<circle class="st2" cx="326.729" cy="1341.817" r="8.622"/>
	<circle class="st2" cx="267.957" cy="1172.877" r="8.622"/>
	<circle class="st2" cx="203.511" cy="1184.978" r="8.622"/>
	<circle class="st2" cx="286.002" cy="1253.556" r="4.928"/>
	<circle class="st2" cx="439.769" cy="1110.716" r="4.927"/>
</g>
<g id="aries">
	<line class="st1" x1="600.507" y1="1585.257" x2="763.943" y2="1421.771"/>
	<polyline class="st1" points="525.167,1660.188 578.079,1660.332 591.461,1610.995 	"/>
	<line class="st1" x1="524.756" y1="1651.978" x2="579.61" y2="1605.427"/>
	
		<circle class="st2" cx="592.033" cy="1596.253" r="16.012"/>
		<circle class="st0" cx="596.604" cy="1598.784" r="4.927"/>
	
		<circle class="st2" cx="517.675" cy="1658.617" r="11.085"/>
		<circle class="st0" cx="519.538" cy="1660.645" r="4.927"/>
	
	<line class="st1" x1="767.611" y1="1417.128" x2="804.974" y2="1404.605"/>
	<line class="st1" x1="807.231" y1="1400.91" x2="777.464" y2="1368.885"/>
	<line class="st1" x1="773.153" y1="1371.348" x2="769.254" y2="1416.102"/>
	<line class="st1" x1="565.608" y1="1589.98" x2="484.93" y2="1652.182"/>
	<line class="st1" x1="569.918" y1="1585.668" x2="690.218" y2="1263.163"/>
	<line class="st1" x1="694.529" y1="1260.289" x2="771.717" y2="1358.827"/>
	<line class="st1" x1="692.887" y1="1258.03" x2="701.713" y2="1156.413"/>
	<circle class="st2" cx="766.732" cy="1419.207" r="4.927"/>
	<circle class="st2" cx="574.173" cy="1650.08" r="4.927"/>
	<circle class="st2" cx="807.146" cy="1403.755" r="4.927"/>
	<circle class="st2" cx="693.084" cy="1260.947" r="4.927"/>
	<circle class="st2" cx="771.733" cy="1365.23" r="8.622"/>
	<circle class="st2" cx="702.407" cy="1150.621" r="8.622"/>
	<circle class="st2" cx="567.827" cy="1587.825" r="4.928"/>
	
		<circle class="st2" cx="481.779" cy="1654.11" r="4.927"/>
		
			<rect x="468.632" y="1653.466" transform="matrix(0.2761 0.9611 -0.9611 0.2761 1938.9731 734.9766)" class="st2" width="25.863" height="2.464"/>
	
</g>
<g id="cancer">
	<path class="st1" d="M2664.167,779.045"/>
	<line class="st1" x1="2707.575" y1="640.525" x2="2662.411" y2="784.637"/>
	<line class="st1" x1="2705.112" y1="636.008" x2="2555.253" y2="478.348"/>
	<line class="st1" x1="2751.507" y1="571.549" x2="2709.218" y2="637.651"/>
	<line class="st1" x1="2754.794" y1="565.39" x2="2645.579" y2="297.694"/>
	<line class="st1" x1="2639.831" y1="296.874" x2="2555.253" y2="470.136"/>
	<line class="st1" x1="2760.95" y1="566.21" x2="2910.399" y2="493.539"/>
	<circle class="st2" cx="2643.196" cy="295.901" r="8.622"/>
	
		<circle class="st2" cx="2656.056" cy="786.875" r="11.085"/>
		
			<rect x="2639.073" y="785.46" transform="matrix(0.2761 0.9611 -0.9611 0.2761 2679.5015 -1983.1311)" class="st2" width="34.488" height="3.696"/>
	
	<circle class="st2" cx="2553.774" cy="475.367" r="8.622"/>
	<circle class="st2" cx="2705.935" cy="639.272" r="8.622"/>
	<circle class="st2" cx="2755.243" cy="570.004" r="8.622"/>
	<circle class="st2" cx="2913.667" cy="492.466" r="8.622"/>
</g>
<g id="hydra">
	<line class="st1" x1="3265.636" y1="407.237" x2="3142.372" y2="380.631"/>
	<line class="st1" x1="3125.54" y1="380.22" x2="2968.7" y2="367.902"/>
	<line class="st1" x1="2955.562" y1="367.082" x2="2886.997" y2="345.322"/>
	<line class="st1" x1="2881.249" y1="338.341" x2="2829.517" y2="301.801"/>
	<line class="st1" x1="2831.569" y1="291.947" x2="2857.845" y2="255.406"/>
	<line class="st1" x1="2865.646" y1="252.532" x2="2890.28" y2="263.206"/>
	<line class="st1" x1="2898.083" y1="268.954" x2="2958.026" y2="360.512"/>

		<circle class="st2" cx="3134.31" cy="381.681" r="11.085"/>
		
			<rect x="3117.318" y="380.307" transform="matrix(0.2761 0.9611 -0.9611 0.2761 2636.4548 -2736.083)" class="st2" width="34.487" height="3.696"/>

	<circle class="st2" cx="2883.685" cy="343.45" r="8.622"/>
	<circle class="st2" cx="2828.636" cy="299.029" r="8.622"/>
	<circle class="st2" cx="2862.919" cy="253.3" r="8.622"/>
	<circle class="st2" cx="2895.423" cy="268.313" r="8.622"/>
	<circle class="st2" cx="2963.405" cy="366.69" r="11.086"/>
</g>
<g id="cassiopeia">
	<line class="st1" x1="1466.667" y1="1889.135" x2="1610.11" y2="1909.818"/>
	<line class="st1" x1="1367.975" y1="1952.723" x2="1449.268" y2="1894.832"/>
	<line class="st1" x1="1382.14" y1="2020.314" x2="1363.202" y2="1963.962"/>
	<line class="st1" x1="1348.729" y1="2169.508" x2="1290.992" y2="2104.379"/>
	<line class="st1" x1="1343.894" y1="2224.035" x2="1354.733" y2="2196.451"/>

		<circle class="st2" cx="1280.483" cy="2096.952" r="16.013"/>
		<circle class="st0" cx="1285.054" cy="2099.485" r="4.927"/>

		<circle class="st2" cx="1359.301" cy="1956.417" r="11.086"/>
		<circle class="st0" cx="1361.669" cy="1955.737" r="4.927"/>

		<circle class="st2" cx="1458.357" cy="1890.804" r="11.085"/>
		<circle class="st0" cx="1460.723" cy="1890.123" r="4.927"/>

		<circle class="st2" cx="1354.875" cy="2181.952" r="16.013"/>
		<circle class="st0" cx="1359.448" cy="2184.486" r="4.928"/>

	<line class="st1" x1="1292.069" y1="2089.906" x2="1360.584" y2="2053.416"/>

		<circle class="st2" cx="1383.278" cy="2044.362" r="16.013"/>

			<path class="st2" d="M1407.252,2037.479c3.796,13.219-3.869,27.061-17.09,30.859c-13.218,3.795-27.062-3.871-30.858-17.088
				c-3.796-13.221,3.869-27.061,17.089-30.861C1389.612,2016.593,1403.455,2024.258,1407.252,2037.479z M1361.673,2050.57
				c3.421,11.912,15.898,18.82,27.812,15.4c11.913-3.424,18.822-15.898,15.4-27.813c-3.42-11.912-15.898-18.823-27.812-15.4
				C1365.16,2026.18,1358.251,2038.656,1361.673,2050.57z"/>

		<circle class="st0" cx="1387.849" cy="2046.894" r="4.927"/>

	<circle class="st2" cx="1616.918" cy="1911.903" r="8.622"/>
	<circle class="st2" cx="1334.588" cy="2239.042" r="8.622"/>

		<circle class="st2" cx="1334.588" cy="2239.042" r="8.622"/>

			<path class="st2" d="M1352.345,2233.943c2.812,9.789-2.865,20.043-12.657,22.857c-9.791,2.813-20.047-2.867-22.859-12.658
				c-2.811-9.791,2.866-20.045,12.658-22.857C1339.279,2218.471,1349.533,2224.148,1352.345,2233.943z M1319.197,2243.463
				c2.437,8.484,11.324,13.406,19.81,10.969s13.408-11.322,10.969-19.809c-2.437-8.49-11.323-13.408-19.81-10.971
				C1321.681,2226.09,1316.759,2234.975,1319.197,2243.463z"/>


</g>
<g id="monoceros">
	<line class="st1" x1="1875.137" y1="224.612" x2="1828.024" y2="189.816"/>
	<line class="st1" x1="1815.398" y1="182.733" x2="1737.8" y2="125.766"/>
	<line class="st1" x1="1735.336" y1="122.071" x2="1929.315" y2="62.492"/>
	<line class="st1" x1="1824.021" y1="180.27" x2="1931.268" y2="67.058"/>
	<line class="st1" x1="1940.213" y1="58.739" x2="2101.222" y2="7.354"/>

		<circle class="st2" cx="1881.578" cy="227.583" r="11.085"/>
		
			<rect x="1864.836" y="226.192" transform="matrix(0.276 0.9612 -0.9612 0.276 1581.8074 -1643.8751)" class="st2" width="34.488" height="3.695"/>

	<circle class="st2" cx="1820.106" cy="187.569" r="11.086"/>
	<circle class="st2" cx="1733.396" cy="126.611" r="7.391"/>
	<circle class="st2" cx="1936.166" cy="60.686" r="7.39"/>
</g>
<g id="canis_minor">
	<line class="st1" x1="2354.587" y1="146.398" x2="2260.667" y2="187.353"/>
	<line class="st1" x1="2256.663" y1="199.978" x2="2263.13" y2="216.606"/>
	<line class="st1" x1="2238.497" y1="215.682" x2="2248.966" y2="198.13"/>

		<circle class="st2" cx="2368.556" cy="139.461" r="22.171"/>
		<circle class="st0" cx="2373.8" cy="138.756" r="4.927"/>

	<circle class="st2" cx="2237.54" cy="217.617" r="4.927"/>
	<circle class="st2" cx="2265.122" cy="219.948" r="8.622"/>
	<circle class="st2" cx="2253.411" cy="192.555" r="11.086"/>
</g>
<g id="ophiuchus">
	<line class="st1" x1="2686.536" y1="3642.344" x2="2969.114" y2="3595.023"/>

		<circle class="st2" cx="2673.704" cy="3646.003" r="16.013"/>
		<circle class="st0" cx="2678.274" cy="3648.535" r="7.391"/>

	<line class="st1" x1="2273.487" y1="4036.955" x2="2076.73" y2="3957.973"/>
	<line class="st1" x1="2075.908" y1="3951.199" x2="2437.112" y2="3789.072"/>
	<line class="st1" x1="2449.583" y1="3788.609" x2="2503.112" y2="3929.027"/>
	<line class="st1" x1="2504.755" y1="3940.523" x2="2478.776" y2="3999.141"/>
	<line class="st1" x1="2505.37" y1="3933.748" x2="2540.063" y2="3917.531"/>
	<line class="st1" x1="2550.329" y1="3911.783" x2="2640.448" y2="3893.309"/>
	<line class="st1" x1="2656.257" y1="3886.533" x2="2666.521" y2="3848.041"/>
	<line class="st1" x1="2672.679" y1="3834.184" x2="2676.374" y2="3660.818"/>
	<line class="st1" x1="2675.759" y1="3836.646" x2="2969.319" y2="3598.514"/>
	<line class="st1" x1="2674.526" y1="3841.268" x2="2752.247" y2="3920.598"/>
	<line class="st1" x1="3208.567" y1="3684.453" x2="2979.79" y2="3593.998"/>
	<line class="st1" x1="3235.886" y1="3597.691" x2="2988.823" y2="3560.125"/>
	<line class="st1" x1="2983.28" y1="3562.795" x2="2977.737" y2="3587.223"/>
	<line class="st1" x1="3247.896" y1="3599.541" x2="3311.952" y2="3608.627"/>
	<circle class="st2" cx="2443.63" cy="3786.41" r="8.623"/>
	<circle class="st2" cx="3242.122" cy="3599.37" r="8.622"/>
	<circle class="st2" cx="2983.874" cy="3556.92" r="8.623"/>
	<path class="st2" d="M2973.435,3580.871c6.123,0,11.086,4.963,11.086,11.084c0,6.123-4.963,11.086-11.086,11.086
		c-6.119,0-11.084-4.963-11.084-11.086C2962.351,3585.834,2967.315,3580.871,2973.435,3580.871z"/>
	<circle class="st2" cx="2666.696" cy="3840.244" r="11.086"/>
	<circle class="st2" cx="2650.021" cy="3893.731" r="11.085"/>
	<circle class="st2" cx="2501.698" cy="3935.048" r="8.622"/>

		<circle class="st2" cx="2070.799" cy="3956.284" r="8.622"/>
		
			<rect x="2053.709" y="3954.694" transform="matrix(0.2762 0.9611 -0.9611 0.2762 5301.7266 873.4971)" class="st2" width="34.486" height="3.697"/>

		<circle class="st2" cx="2544.644" cy="3915.025" r="8.621"/>
		
			<rect x="2527.686" y="3913.592" transform="matrix(0.2762 0.9611 -0.9611 0.2762 5605.3066 388.2004)" class="st2" width="34.486" height="3.694"/>

</g>
<g id="lyra">
	<line class="st1" x1="2171.983" y1="3191.994" x2="2249.89" y2="3219.707"/>
	<line class="st1" x1="2115.786" y1="3169.053" x2="2140.573" y2="3179.83"/>

		<circle class="st2" cx="2157.29" cy="3184.317" r="21.556"/>
		<circle class="st0" cx="2162.114" cy="3185.497" r="4.927"/>

	<line class="st1" x1="2070.572" y1="3242.545" x2="2052.096" y2="3322.813"/>
	<line class="st1" x1="2047.373" y1="3323.43" x2="1954.788" y2="3215.447"/>
	<line class="st1" x1="1953.865" y1="3209.084" x2="1971.622" y2="3188.35"/>
	<line class="st1" x1="1979.219" y1="3178.496" x2="2048.965" y2="3091.453"/>
	<line class="st1" x1="2070.367" y1="3092.686" x2="2105.47" y2="3162.74"/>
	<line class="st1" x1="2252.661" y1="3226.945" x2="2115.802" y2="3300.516"/>
	<line class="st1" x1="2107.112" y1="3292.43" x2="2120.661" y2="3223.453"/>
	<line class="st1" x1="2061.539" y1="3327.33" x2="2084.921" y2="3317.93"/>
	<circle class="st2" cx="2053.523" cy="3329.456" r="11.085"/>

		<circle class="st2" cx="2060.619" cy="3077.521" r="11.085"/>

			<path class="st2" d="M2078.574,3072.365c2.844,9.9-2.898,20.268-12.799,23.113c-9.898,2.844-20.268-2.898-23.111-12.799
				c-2.844-9.902,2.898-20.268,12.799-23.113C2065.361,3056.723,2075.73,3062.465,2078.574,3072.365z M2045.033,3082
				c2.469,8.594,11.471,13.578,20.063,11.109c8.598-2.469,13.58-11.469,11.113-20.064c-2.469-8.594-11.471-13.576-20.064-11.111
				C2047.547,3064.404,2042.564,3073.404,2045.033,3082z"/>

		<circle class="st2" cx="2100.36" cy="3309.598" r="11.086"/>

			<path class="st2" d="M2118.317,3304.439c2.842,9.9-2.9,20.27-12.799,23.111c-9.9,2.846-20.27-2.896-23.112-12.797
				c-2.844-9.902,2.896-20.27,12.798-23.113C2105.104,3288.797,2115.474,3294.539,2118.317,3304.439z M2084.772,3314.074
				c2.469,8.596,11.471,13.576,20.064,11.111c8.596-2.469,13.578-11.471,11.111-20.066c-2.471-8.594-11.471-13.576-20.066-11.109
				C2087.288,3296.479,2082.305,3305.479,2084.772,3314.074z"/>

		<circle class="st2" cx="2079.268" cy="3227.23" r="11.086"/>

			<path class="st2" d="M2097.224,3222.074c2.844,9.9-2.898,20.268-12.798,23.111c-9.902,2.846-20.27-2.896-23.111-12.799
				c-2.846-9.9,2.898-20.27,12.797-23.111C2084.012,3206.432,2094.38,3212.174,2097.224,3222.074z M2063.682,3231.707
				c2.467,8.596,11.469,13.578,20.064,11.111c8.593-2.469,13.577-11.471,11.11-20.066c-2.471-8.594-11.47-13.576-20.065-11.109
				C2066.197,3214.111,2061.213,3223.113,2063.682,3231.707z"/>

	<circle class="st2" cx="1951.172" cy="3214.04" r="8.622"/>
	<circle class="st2" cx="2121.22" cy="3221.589" r="4.927"/>
	<circle class="st2" cx="2257.249" cy="3222.246" r="8.621"/>

		<circle class="st2" cx="1975.832" cy="3183.89" r="8.622"/>
		
			<rect x="1959.39" y="3182.031" transform="matrix(0.2761 0.9611 -0.9611 0.2761 4490.686 405.7207)" class="st2" width="33.253" height="3.696"/>

		<circle class="st2" cx="2110.653" cy="3166.954" r="8.622"/>
		
			<rect x="2094.217" y="3165.101" transform="matrix(0.276 0.9612 -0.9612 0.276 4572.2319 264.0547)" class="st2" width="33.254" height="3.694"/>

</g>
<g id="pegasus">
	<line class="st1" x1="635.098" y1="3307.93" x2="566.737" y2="3059.428"/>
	<line class="st1" x1="833.098" y1="3375.059" x2="570.433" y2="3053.27"/>
	<line class="st1" x1="924.861" y1="2791.527" x2="1080.367" y2="2902.385"/>
	<line class="st1" x1="804.46" y1="2823.244" x2="902.998" y2="2794.299"/>
	<line class="st1" x1="544.052" y1="2842.645" x2="373.664" y2="2380.133"/>
	<line class="st1" x1="375.922" y1="2376.643" x2="792.245" y2="2684.574"/>

		<circle class="st2" cx="842.196" cy="3386.452" r="16.013"/>
		<circle class="st0" cx="846.768" cy="3388.982" r="4.928"/>

		<circle class="st2" cx="913.28" cy="2790.634" r="12.317"/>
		<circle class="st0" cx="915.879" cy="2793.733" r="4.927"/>

	<line class="st1" x1="564.274" y1="3048.344" x2="570.74" y2="3009.236"/>
	<line class="st1" x1="571.664" y1="2996.918" x2="550.417" y2="2857.016"/>
	<line class="st1" x1="557.191" y1="2847.777" x2="777.978" y2="2866.355"/>
	<line class="st1" x1="963.969" y1="3266.666" x2="978.852" y2="3048.139"/>
	<line class="st1" x1="1114.547" y1="3316.859" x2="1121.321" y2="3230.021"/>
	<line class="st1" x1="1118.652" y1="3225.303" x2="1078.005" y2="3134.357"/>
	<line class="st1" x1="1071.642" y1="3123.479" x2="981.11" y2="3043.621"/>
	<line class="st1" x1="971.257" y1="3034.795" x2="791.527" y2="2871.898"/>
	<line class="st1" x1="969.203" y1="3037.875" x2="576.591" y2="3004.002"/>
	<line class="st1" x1="785.771" y1="2863.988" x2="796.454" y2="2833.715"/>
	<line class="st1" x1="470.663" y1="2981.521" x2="542" y2="2854.963"/>
	<line class="st1" x1="432.171" y1="2893.453" x2="537.484" y2="2849.625"/>
	<line class="st1" x1="398.914" y1="2868.818" x2="537.073" y2="2847.777"/>
	<line class="st1" x1="556.442" y1="2841.059" x2="784.929" y2="2715.203"/>

		<circle class="st2" cx="805.388" cy="2705.003" r="16.013"/>

			<path class="st2" d="M829.362,2698.117c3.796,13.221-3.869,27.063-17.089,30.859c-13.218,3.797-27.062-3.869-30.858-17.088
				c-3.797-13.219,3.868-27.061,17.089-30.859C811.723,2677.234,825.564,2684.9,829.362,2698.117z M783.782,2711.209
				c3.422,11.912,15.898,18.822,27.812,15.4c11.913-3.422,18.822-15.898,15.401-27.813c-3.422-11.912-15.898-18.82-27.811-15.4
				C787.269,2686.82,780.361,2699.297,783.782,2711.209z"/>

		<circle class="st0" cx="809.96" cy="2707.534" r="4.927"/>

		<circle class="st2" cx="547.909" cy="2848.155" r="11.085"/>
		<circle class="st0" cx="549.772" cy="2850.184" r="4.928"/>

		<circle class="st2" cx="367.066" cy="2374.671" r="11.085"/>
		<circle class="st0" cx="368.932" cy="2376.698" r="4.927"/>

	<circle class="st2" cx="1073.634" cy="3130.316" r="8.623"/>
	<circle class="st2" cx="1119.789" cy="3228.554" r="4.927"/>
	<circle class="st2" cx="962.839" cy="3271.067" r="8.622"/>
	<circle class="st2" cx="1086.184" cy="2906.29" r="8.622"/>
	<circle class="st2" cx="975.212" cy="3041.966" r="8.622"/>
	<circle class="st2" cx="570.625" cy="3003.103" r="8.622"/>
	<circle class="st2" cx="784.465" cy="2868.64" r="8.622"/>
	<circle class="st2" cx="800.147" cy="2829.535" r="8.623"/>
	<circle class="st2" cx="468.069" cy="2985.142" r="4.927"/>
	<circle class="st2" cx="396.513" cy="2869.851" r="4.927"/>
	<circle class="st2" cx="426.158" cy="2897.219" r="8.623"/>
	<circle class="st2" cx="563.759" cy="3055.054" r="8.622"/>
	<circle class="st2" cx="638.223" cy="3314.32" r="8.623"/>

		<circle class="st2" cx="1110.783" cy="3322.129" r="8.623"/>
		
			<rect x="1093.866" y="3320.842" transform="matrix(0.276 0.9612 -0.9612 0.276 3998.0442 1337.6385)" class="st2" width="34.484" height="3.696"/>

</g>
<g id="hercules">
	<line class="st1" x1="2986.771" y1="3252.605" x2="3044.661" y2="3259.996"/>
	<line class="st1" x1="2718.562" y1="3180.445" x2="2970.759" y2="3249.732"/>
	<line class="st1" x1="2684.382" y1="2781.213" x2="2731.392" y2="2784.344"/>

		<circle class="st2" cx="2803.843" cy="3545.832" r="13.549"/>

			<path class="st2" d="M2824.116,3540.008c3.211,11.182-3.271,22.887-14.451,26.1c-11.178,3.209-22.887-3.271-26.098-14.451
				c-3.211-11.178,3.275-22.885,14.451-26.098C2809.198,3522.35,2820.905,3528.83,2824.116,3540.008z M2785.937,3550.975
				c2.836,9.875,13.174,15.6,23.049,12.762c9.875-2.836,15.6-13.174,12.764-23.049c-2.836-9.873-13.174-15.598-23.049-12.762
				C2788.827,3530.762,2783.103,3541.102,2785.937,3550.975z"/>

		<circle class="st0" cx="2807.229" cy="3548.704" r="6.159"/>

		<circle class="st2" cx="2977.878" cy="3254.924" r="11.086"/>
		<circle class="st0" cx="2979.741" cy="3256.952" r="4.927"/>

	<line class="st1" x1="2382.608" y1="2954.527" x2="2576.604" y2="2866.047"/>
	<line class="st1" x1="2582.456" y1="2862.66" x2="2671.603" y2="2783.523"/>
	<line class="st1" x1="2739.603" y1="2792.762" x2="2712.813" y2="2878.059"/>
	<line class="st1" x1="2695.774" y1="2898.895" x2="2683.866" y2="2902.488"/>
	<line class="st1" x1="2671.448" y1="2905.258" x2="2381.993" y2="2958.838"/>
	<line class="st1" x1="2376.45" y1="2965.201" x2="2367.673" y2="3168.59"/>
	<path class="st1" d="M2382.044,3171.508"/>
	<path class="st1" d="M2516.987,3121.539"/>
	<line class="st1" x1="2376.142" y1="3172.902" x2="2522.718" y2="3119.322"/>
	<line class="st1" x1="2406.216" y1="3342.932" x2="2524.718" y2="3120.092"/>
	<line class="st1" x1="2408.476" y1="3349.502" x2="2478.478" y2="3365.719"/>
	<line class="st1" x1="2490.794" y1="3364.486" x2="2709.015" y2="3184.449"/>
	<line class="st1" x1="2579.067" y1="3114.549" x2="2708.091" y2="3173.979"/>
	<line class="st1" x1="2577.835" y1="3101.307" x2="2688.384" y2="2988.912"/>
	<line class="st1" x1="2695.157" y1="2988.912" x2="2713.737" y2="3012.418"/>
	<line class="st1" x1="2737.036" y1="3044.648" x2="2782.714" y2="3104.797"/>
	<line class="st1" x1="2779.019" y1="3118.756" x2="2718.868" y2="3173.672"/>
	<line class="st1" x1="3059.442" y1="3259.996" x2="3162.495" y2="3232.076"/>
	<line class="st1" x1="2796.468" y1="3526.869" x2="2703.165" y2="3360.893"/>
	<line class="st1" x1="2684.382" y1="3355.967" x2="2593.233" y2="3357.199"/>
	<line class="st1" x1="2580.3" y1="3358.738" x2="2490.794" y2="3366.744"/>
	<line class="st1" x1="2125.794" y1="3645.73" x2="2136.263" y2="3602.619"/>
	<line class="st1" x1="2141.806" y1="3592.15" x2="2266.417" y2="3551.914"/>
	<line class="st1" x1="2279.657" y1="3549.553" x2="2376.86" y2="3553.967"/>
	<line class="st1" x1="2383.839" y1="3553.35" x2="2432.286" y2="3521.941"/>
	<line class="st1" x1="2432.698" y1="3511.063" x2="2352.636" y2="3389.736"/>
	<line class="st1" x1="2352.636" y1="3380.91" x2="2397.39" y2="3352.375"/>
	<circle class="st2" cx="2347.823" cy="3385.897" r="8.622"/>
	<circle class="st2" cx="2678.097" cy="2782.28" r="8.622"/>
	<circle class="st2" cx="2572.208" cy="3107.44" r="12.933"/>
	<circle class="st2" cx="2786.073" cy="3111.374" r="12.933"/>

			<path class="st2" d="M2717.487,2883.738c2.158,7.508-2.197,15.369-9.703,17.523c-7.508,2.158-15.367-2.195-17.523-9.703
				c-2.158-7.506,2.195-15.367,9.703-17.523C2707.47,2871.877,2715.333,2876.232,2717.487,2883.738z M2692.628,2890.879
				c1.779,6.201,8.275,9.799,14.477,8.018c6.199-1.783,9.797-8.275,8.016-14.477c-1.781-6.203-8.275-9.799-14.477-8.016
				C2694.442,2878.184,2690.845,2884.678,2692.628,2890.879z"/>

		<circle class="st2" cx="2703.579" cy="2887.734" r="6.158"/>

	<circle class="st2" cx="2124.181" cy="3651.327" r="8.622"/>
	<circle class="st2" cx="2138.149" cy="3597.338" r="8.623"/>
	<circle class="st2" cx="2272.255" cy="3551.134" r="8.622"/>
	<circle class="st2" cx="2380.198" cy="3552.169" r="8.622"/>
	<circle class="st2" cx="2402.759" cy="3349.616" r="8.622"/>
	<circle class="st2" cx="2587.188" cy="3358.161" r="8.622"/>
	<circle class="st2" cx="2712.481" cy="3178.646" r="8.622"/>
	<circle class="st2" cx="2689.714" cy="2987.83" r="8.621"/>
	<circle class="st2" cx="2676.911" cy="2903.083" r="8.622"/>
	<path class="st2" d="M2376.663,2950.869c4.574-1.313,9.352,1.332,10.668,5.908c1.313,4.576-1.332,9.354-5.908,10.664
		c-4.576,1.316-9.354-1.326-10.668-5.904C2369.442,2956.961,2372.087,2952.186,2376.663,2950.869z"/>
	<circle class="st2" cx="2736.308" cy="2788.628" r="8.622"/>
	<circle class="st2" cx="3052.497" cy="3260.403" r="8.622"/>
	<circle class="st2" cx="2369.187" cy="3174.719" r="8.623"/>

		<circle class="st2" cx="3163.784" cy="3231.245" r="5.698"/>
		
			<rect x="3153.055" y="3228.851" transform="matrix(0.276 0.9612 -0.9612 0.276 5395.6445 -701.5974)" class="st2" width="20.94" height="3.694"/>

		<circle class="st2" cx="2436.317" cy="3515.546" r="8.622"/>
		
			<rect x="2419.261" y="3514.017" transform="matrix(0.2761 0.9611 -0.9611 0.2761 5142.9697 203.3281)" class="st2" width="34.485" height="3.699"/>

		<circle class="st2" cx="2485.517" cy="3365.575" r="8.62"/>
		
			<rect x="2468.43" y="3364.031" transform="matrix(0.2761 0.9611 -0.9611 0.2761 5034.4585 47.5342)" class="st2" width="34.487" height="3.695"/>

		<circle class="st2" cx="2527.638" cy="3115.114" r="8.622"/>
		
			<rect x="2510.738" y="3113.845" transform="matrix(0.276 0.9611 -0.9611 0.276 4824.8018 -174.1167)" class="st2" width="34.486" height="3.694"/>

		<circle class="st2" cx="2694.794" cy="3358.012" r="11.086"/>
		
			<rect x="2672.167" y="3356.318" transform="matrix(0.2761 0.9611 -0.9611 0.2761 5177.5815 -158.0598)" class="st2" width="43.107" height="3.697"/>

		<circle class="st2" cx="2723.21" cy="3044.582" r="4.311"/>
		<circle class="st2" cx="2711.017" cy="3037.831" r="4.312"/>
		<circle class="st2" cx="2709.644" cy="3024.128" r="4.312"/>
		<circle class="st2" cx="2720.804" cy="3018.361" r="4.311"/>
		<circle class="st2" cx="2734.026" cy="3037.631" r="4.311"/>
		<circle class="st2" cx="2732.313" cy="3022.744" r="4.311"/>
		<path class="st2" d="M2721.831,3026.396c2.287-0.658,4.676,0.668,5.334,2.953c0.658,2.287-0.668,4.676-2.955,5.332
			c-2.285,0.658-4.676-0.664-5.334-2.951C2718.222,3029.441,2719.542,3027.053,2721.831,3026.396z"/>

	<circle class="st2" cx="2578.864" cy="2863.269" r="4.927"/>
</g>
<g id="ursa_minor" onclick="NS_main('aboutus')" cursor="pointer">
	<line class="st1" x1="2250.198" y1="2208.922" x2="2350.583" y2="2202.148"/>
	<line class="st1" x1="2361.36" y1="2204.303" x2="2372.78" y2="2261.727"/>

		<circle class="st2" cx="2355.987" cy="2191.74" r="16.012"/>
		<circle class="st0" cx="2360.562" cy="2194.272" r="4.927"/>

	<line class="st1" x1="2141.19" y1="2172.586" x2="2241.267" y2="2210.461"/>
	<line class="st1" x1="2368.442" y1="2272.971" x2="2252.046" y2="2279.131"/>
	<line class="st1" x1="2252.661" y1="2277.283" x2="2247.751" y2="2222.025"/>
	<line class="st1" x1="2136.263" y1="2170.43" x2="2071.289" y2="2090.215"/>
	<line class="st1" x1="2064.516" y1="2080.977" x2="2030.924" y2="2032.268"/>
	<circle class="st2" cx="2376.491" cy="2274.277" r="12.934"/>
	<circle class="st2" cx="2136.862" cy="2173.938" r="8.622"/>
	<circle class="st2" cx="2066.867" cy="2086.396" r="8.622"/>
	<circle class="st2" cx="2245.876" cy="2214.394" r="8.622"/>
	<circle class="st2" cx="2251.38" cy="2278.171" r="4.927"/>
	<circle class="st2" cx="2019.928" cy="2017.219" r="19.246"/>
</g>
<g id="perseus">
	<line class="st1" x1="1292.941" y1="1623.442" x2="1333.384" y2="1598.602"/>
	<line class="st1" x1="998.738" y1="1483.923" x2="1036.152" y2="1445.843"/>
	<line class="st1" x1="1065.842" y1="1432.063" x2="1079.237" y2="1433.243"/>
	<line class="st1" x1="1125.284" y1="1446.142" x2="1160.121" y2="1467.834"/>
	<line class="st1" x1="1168.743" y1="1476.765" x2="1247.723" y2="1528.877"/>
	<line class="st1" x1="1259.891" y1="1535.168" x2="1272.754" y2="1522.329"/>
	<line class="st1" x1="1278.572" y1="1517" x2="1289.76" y2="1503.863"/>
	<line class="st1" x1="1295.559" y1="1480.972" x2="1290.582" y2="1470.195"/>
	<line class="st1" x1="1288.221" y1="1465.164" x2="1280.008" y2="1444.585"/>
	<line class="st1" x1="1278.212" y1="1439.351" x2="1231.92" y2="1325.363"/>
	<line class="st1" x1="1231.561" y1="1317.307" x2="1232.793" y2="1249.562"/>
	<line class="st1" x1="1226.326" y1="1234.011" x2="1165.972" y2="1162.879"/>
	<line class="st1" x1="1152.115" y1="1155.797" x2="1085.807" y2="1131.881"/>
	<line class="st1" x1="1072.053" y1="1135.781" x2="1050.998" y2="1160.648"/>
	<line class="st1" x1="1307.414" y1="1480.716" x2="1307.928" y2="1468.912"/>
	<line class="st1" x1="1307.106" y1="1463.524" x2="1305.293" y2="1439.297"/>
	<line class="st1" x1="1305.695" y1="1420.002" x2="1317.396" y2="1405.837"/>
	<line class="st1" x1="1326.019" y1="1388.747" x2="1371.708" y2="1338.053"/>
	<line class="st1" x1="1382.255" y1="1326.968" x2="1410.931" y2="1322.233"/>
	<line class="st1" x1="1423.787" y1="1318.077" x2="1451.938" y2="1340.197"/>
	<line class="st1" x1="1451.68" y1="1347.997" x2="1418.783" y2="1372.838"/>
	<line class="st1" x1="1306.286" y1="1506.326" x2="1339.337" y2="1587.979"/>
	<line class="st1" x1="1341.391" y1="1601.477" x2="1355.35" y2="1662.857"/>
	<line class="st1" x1="1347.137" y1="1664.499" x2="1292.941" y2="1624.674"/>
	<line class="st1" x1="1291.916" y1="1624.468" x2="1260.738" y2="1538.941"/>
	<line class="st1" x1="1251.269" y1="1540.403" x2="1210.313" y2="1624.365"/>
	<line class="st1" x1="1208.672" y1="1634.426" x2="1206.413" y2="1702.067"/>
	<line class="st1" x1="1203.231" y1="1708.996" x2="1166.472" y2="1855.994"/>

		<circle class="st2" cx="1103.777" cy="1432.616" r="16.012"/>

			<path class="st2" d="M1127.751,1425.731c3.797,13.219-3.869,27.062-17.088,30.859c-13.218,3.796-27.062-3.87-30.858-17.088
				c-3.797-13.219,3.869-27.063,17.088-30.859C1110.112,1404.847,1123.955,1412.513,1127.751,1425.731z M1082.172,1438.822
				c3.422,11.913,15.898,18.821,27.811,15.4s18.821-15.898,15.4-27.811c-3.422-11.912-15.898-18.821-27.812-15.4
				S1078.75,1426.909,1082.172,1438.822z"/>

		<circle class="st0" cx="1108.349" cy="1435.147" r="4.927"/>

	<circle class="st2" cx="1203.806" cy="1705.043" r="4.927"/>
	<circle class="st2" cx="1163.25" cy="1862.786" r="8.622"/>
	<circle class="st2" cx="1288.126" cy="1628.284" r="8.622"/>
	<circle class="st2" cx="1254.667" cy="1534.092" r="8.622"/>
	<circle class="st2" cx="1377.73" cy="1333.431" r="8.622"/>
	<circle class="st2" cx="1416.368" cy="1378.721" r="8.622"/>
	<circle class="st2" cx="1451.342" cy="1344.326" r="4.927"/>
	<circle class="st2" cx="1306.683" cy="1465.329" r="4.927"/>
	<circle class="st2" cx="1289.428" cy="1467.722" r="4.927"/>
	<circle class="st2" cx="1278.396" cy="1442.696" r="4.927"/>
	<circle class="st2" cx="1276.305" cy="1520.188" r="4.927"/>
	<circle class="st2" cx="1417.301" cy="1319.503" r="8.622"/>
	<circle class="st2" cx="1340.532" cy="1596.573" r="11.086"/>
	<circle class="st2" cx="1302.741" cy="1429.296" r="11.086"/>
	<circle class="st2" cx="1321.645" cy="1396.955" r="11.085"/>
	<circle class="st2" cx="1229.561" cy="1241.427" r="11.086"/>
	<circle class="st2" cx="1228.652" cy="1318.579" r="8.622"/>
	<circle class="st2" cx="1166.433" cy="1472.29" r="8.622"/>
	<circle class="st2" cx="1158.897" cy="1160.481" r="8.622"/>
	<circle class="st2" cx="1078.999" cy="1132.168" r="8.622"/>
	<circle class="st2" cx="1046.734" cy="1167.066" r="8.622"/>
	<circle class="st2" cx="992.696" cy="1487.588" r="8.622"/>

		<circle class="st2" cx="1209.797" cy="1629.333" r="8.622"/>
		
			<rect x="1195.483" y="1628.38" transform="matrix(0.9997 0.025 -0.025 0.9997 41.1577 -29.7748)" class="st2" width="29.562" height="2.465"/>

		<circle class="st2" cx="1352.929" cy="1667.296" r="8.622"/>
		
			<rect x="1338.691" y="1666.319" transform="matrix(0.9611 -0.2761 0.2761 0.9611 -407.8413 438.5723)" class="st2" width="29.56" height="2.464"/>

	<circle class="st2" cx="1049.471" cy="1435.398" r="12.316"/>

		<path class="st2" d="M1066.637,1430.468c2.718,9.465-2.769,19.378-12.235,22.095c-9.465,2.719-19.378-2.771-22.097-12.235
			c-2.718-9.465,2.772-19.378,12.237-22.095C1054.006,1415.514,1063.919,1421.004,1066.637,1430.468z M1034.672,1439.648
			c2.343,8.16,10.889,12.892,19.049,10.547c8.16-2.343,12.891-10.889,10.548-19.049c-2.343-8.161-10.889-12.892-19.049-10.547
			C1037.062,1422.943,1032.33,1431.488,1034.672,1439.648z"/>

		<circle class="st2" cx="1300.799" cy="1493.931" r="16.012"/>
		<circle class="st0" cx="1305.372" cy="1496.461" r="4.927"/>

</g>
<g id="camelopardalis">
	<line class="st1" x1="1490.224" y1="1617.848" x2="1623.352" y2="1654.337"/>
	<line class="st1" x1="1630.229" y1="1664.396" x2="1720.325" y2="1738.557"/>
	<line class="st1" x1="1724.829" y1="1737.749" x2="1751.194" y2="1579.381"/>
	<line class="st1" x1="1760.048" y1="1573.505" x2="2032.594" y2="1726.908"/>
	<line class="st1" x1="2034.955" y1="1725.47" x2="1949.553" y2="1558.571"/>
	<line class="st1" x1="1752.504" y1="1565.423" x2="1700.643" y2="1458.699"/>
	<line class="st1" x1="1695.613" y1="1449.871" x2="1607.905" y2="1333.397"/>
	<line class="st1" x1="1694.074" y1="1457.981" x2="1627.869" y2="1653.106"/>
	<circle class="st2" cx="1948.041" cy="1556.654" r="4.927"/>
	<circle class="st2" cx="1483.187" cy="1615.834" r="8.623"/>
	<circle class="st2" cx="1627.565" cy="1658.948" r="8.621"/>
	<circle class="st2" cx="1752.478" cy="1571.812" r="8.622"/>
	<circle class="st2" cx="1723.104" cy="1741.72" r="4.927"/>
	<circle class="st2" cx="2034.395" cy="1727.924" r="4.927"/>
	<circle class="st2" cx="1697.834" cy="1452.947" r="8.622"/>
	<circle class="st2" cx="1602.07" cy="1329.229" r="8.622"/>
</g>
<g id="auriga">
	<line class="st1" x1="1814.065" y1="1238.118" x2="1616.321" y2="1140.708"/>
	<line class="st1" x1="1618.169" y1="1124.234" x2="1747.192" y2="1049.869"/>
	<line class="st1" x1="1820.428" y1="1235.962" x2="1770.287" y2="1051.87"/>
	<line class="st1" x1="1761.665" y1="1028.467" x2="1722.198" y2="886.049"/>
	<line class="st1" x1="1701.156" y1="881.328" x2="1383.987" y2="920.845"/>
	<line class="st1" x1="1379.778" y1="926.696" x2="1501.104" y2="1037.551"/>
	<line class="st1" x1="1512.908" y1="1048.637" x2="1581.679" y2="1115.458"/>
	<line class="st1" x1="1526.098" y1="1120.23" x2="1573.057" y2="1131.162"/>
	<line class="st1" x1="1501.078" y1="1094.723" x2="1495.183" y2="1082"/>
	<line class="st1" x1="1494.917" y1="1053.136" x2="1502.001" y2="1046.481"/>
	<circle class="st2" cx="1819.361" cy="1242.475" r="8.622"/>
	<circle class="st2" cx="1373.949" cy="923.149" r="11.085"/>
	<circle class="st2" cx="1508.957" cy="1040.72" r="11.085"/>

		<circle class="st2" cx="1505" cy="1116.184" r="11.085"/>

			<path class="st2" d="M1526.704,1109.951c3.438,11.967-3.502,24.5-15.471,27.936c-11.968,3.438-24.501-3.503-27.938-15.47
				c-3.437-11.968,3.503-24.501,15.47-27.938C1510.734,1091.042,1523.267,1097.984,1526.704,1109.951z M1485.665,1121.738
				c3.062,10.661,14.228,16.846,24.889,13.782c10.662-3.062,16.844-14.229,13.783-24.889c-3.063-10.663-14.229-16.845-24.89-13.784
				C1488.784,1099.91,1482.602,1111.076,1485.665,1121.738z"/>

		<circle class="st2" cx="1485.983" cy="1067.822" r="8.622"/>

			<path class="st2" d="M1503.15,1062.891c2.719,9.466-2.771,19.377-12.237,22.096c-9.465,2.72-19.377-2.771-22.096-12.235
				c-2.719-9.465,2.771-19.378,12.238-22.097C1490.519,1047.938,1500.432,1053.426,1503.15,1062.891z M1471.185,1072.072
				c2.344,8.16,10.888,12.891,19.048,10.546c8.16-2.345,12.891-10.888,10.548-19.048s-10.89-12.891-19.047-10.548
				C1473.574,1055.367,1468.841,1063.912,1471.185,1072.072z"/>

		<circle class="st2" cx="1597.172" cy="1130.719" r="24.635"/>
		<circle class="st0" cx="1605.69" cy="1132.119" r="8.622"/>

		<circle class="st2" cx="1759.192" cy="1041.897" r="16.012"/>
		<circle class="st0" cx="1763.764" cy="1044.428" r="4.927"/>

		<circle class="st2" cx="1712.608" cy="879.708" r="12.933"/>
		<circle class="st0" cx="1717.181" cy="882.24" r="4.927"/>

</g>
<g id="taurus">
	<line class="st1" x1="593.989" y1="936.396" x2="640.487" y2="958.875"/>
	<line class="st1" x1="582.133" y1="937.319" x2="554.266" y2="944.556"/>
	<line class="st1" x1="784.444" y1="799.828" x2="594.143" y2="934.548"/>
	<line class="st1" x1="588.6" y1="929.569" x2="711.773" y2="660.489"/>
	<circle class="st2" cx="587.905" cy="934.893" r="8.622"/>
	<line class="st1" x1="1080.982" y1="837.088" x2="1066.1" y2="839.961"/>
	<line class="st1" x1="1458.199" y1="753.946" x2="1180.958" y2="782.686"/>
	<line class="st1" x1="1179.727" y1="779.299" x2="1476.982" y2="589.511"/>
	<line class="st1" x1="1476.366" y1="579.349" x2="1070.205" y2="678.042"/>
	<line class="st1" x1="1085.293" y1="830.005" x2="1057.066" y2="768.419"/>
	<line class="st1" x1="1045.878" y1="761.234" x2="1020.628" y2="752.92"/>
	<line class="st1" x1="1005.391" y1="756.518" x2="990.143" y2="760.311"/>
	<line class="st1" x1="975.279" y1="758.759" x2="954.217" y2="741.321"/>
	<line class="st1" x1="944.184" y1="732.469" x2="827.042" y2="635.906"/>
	<line class="st1" x1="953.576" y1="732.161" x2="972.052" y2="692.976"/>
	<line class="st1" x1="973.207" y1="689.127" x2="1012.931" y2="602.996"/>
	<line class="st1" x1="1055.732" y1="669.727" x2="1055.424" y2="650.481"/>
	<line class="st1" x1="1009.234" y1="593.822" x2="972.591" y2="568.726"/>
	<line class="st1" x1="1040.951" y1="690.358" x2="1004.461" y2="700.52"/>
	<line class="st1" x1="992.991" y1="707.757" x2="953.961" y2="735.395"/>
	<line class="st1" x1="941.501" y1="741.547" x2="812.774" y2="779.71"/>
	<line class="st1" x1="1061.172" y1="844.272" x2="977.518" y2="911.813"/>
	<line class="st1" x1="1094.018" y1="833.599" x2="1171.514" y2="786.895"/>
	<line class="st1" x1="971.667" y1="918.689" x2="917.677" y2="1057.258"/>
	<line class="st1" x1="549.646" y1="933.624" x2="473.126" y2="758.411"/>
	<circle class="st2" cx="645.298" cy="960.699" r="8.622"/>
	<circle class="st2" cx="713.566" cy="654.031" r="8.622"/>
	<circle class="st2" cx="821.146" cy="635.949" r="8.622"/>
	<circle class="st2" cx="551.03" cy="940.356" r="8.622"/>
	<circle class="st2" cx="469.223" cy="753.684" r="8.622"/>
	<circle class="st2" cx="949.025" cy="737.626" r="8.622"/>
	<circle class="st2" cx="999.906" cy="705.071" r="8.622"/>
	<circle class="st2" cx="1012.276" cy="596.434" r="8.622"/>
	<circle class="st2" cx="1054.818" cy="650.853" r="8.622"/>
	<circle class="st2" cx="1482.269" cy="581.911" r="11.085"/>
	<circle class="st2" cx="966.724" cy="567.226" r="8.622"/>
	<circle class="st2" cx="982.726" cy="761.266" r="8.622"/>
	<circle class="st2" cx="1013.344" cy="756.316" r="8.622"/>
	<circle class="st2" cx="1050.407" cy="764.894" r="8.622"/>
	<circle class="st2" cx="972.137" cy="688.697" r="4.927"/>
	<circle class="st2" cx="917.997" cy="1057.945" r="4.927"/>
	<circle class="st2" cx="904.107" cy="1045.275" r="4.927"/>
	<circle class="st2" cx="901.373" cy="1026.837" r="4.927"/>
	<circle class="st2" cx="1062.182" cy="837.123" r="8.622"/>
	<circle class="st2" cx="972.787" cy="914.059" r="8.622"/>
	<circle class="st2" cx="932.658" cy="1015.29" r="8.623"/>
	<circle class="st2" cx="904.811" cy="1065.578" r="8.622"/>
	<circle class="st2" cx="1088.742" cy="835.902" r="8.622"/>
	<circle class="st2" cx="1174.789" cy="782.995" r="8.622"/>

		<circle class="st2" cx="796.483" cy="786.562" r="8.622"/>

			<path class="st2" d="M815.128,781.207c2.905,10.118-2.961,20.715-13.08,23.62c-10.118,2.906-20.714-2.96-23.619-13.079
				c-2.906-10.119,2.96-20.713,13.08-23.621C801.626,765.222,812.222,771.088,815.128,781.207z M780.796,791.068
				c2.531,8.813,11.76,13.924,20.572,11.392c8.813-2.531,13.923-11.759,11.392-20.573c-2.532-8.812-11.759-13.923-20.572-11.392
				S778.266,782.254,780.796,791.068z"/>

		<circle class="st2" cx="1055.117" cy="683.874" r="19.502"/>
		<circle class="st0" cx="1060.686" cy="686.958" r="6.001"/>

		<circle class="st2" cx="1469.304" cy="750.951" r="16.012"/>
		<circle class="st0" cx="1473.876" cy="753.483" r="4.927"/>

		<circle class="st2" cx="923.638" cy="1038.17" r="13.651"/>
		<circle class="st0" cx="926.158" cy="1039.566" r="6.001"/>

</g>
<g id="orion">
	<line class="st1" x1="1641.109" y1="365.645" x2="1591.634" y2="508.691"/>
	<line class="st1" x1="1601.189" y1="518.763" x2="1664.96" y2="504.718"/>
	<line class="st1" x1="1668.978" y1="502.521" x2="1688.531" y2="357.638"/>
	<line class="st1" x1="1686.272" y1="344.706" x2="1586.146" y2="273.939"/>
	<line class="st1" x1="1575.622" y1="266.491" x2="1527.997" y2="245.757"/>
	<line class="st1" x1="1472.158" y1="244.73" x2="1314.702" y2="275.011"/>
	<line class="st1" x1="1312.547" y1="276.345" x2="1351.962" y2="322.227"/>
	<line class="st1" x1="1354.016" y1="324.484" x2="1371.464" y2="343.268"/>
	<line class="st1" x1="1379.266" y1="342.14" x2="1378.958" y2="317.402"/>
	<line class="st1" x1="1486.938" y1="208.189" x2="1402.563" y2="119.588"/>
	<line class="st1" x1="1265.796" y1="158.013" x2="1272.67" y2="286.814"/>
	<line class="st1" x1="1282.678" y1="293.589" x2="1306.081" y2="279.578"/>
	<line class="st1" x1="1254.348" y1="312.219" x2="1020.705" y2="438.548"/>
	<line class="st1" x1="1138.052" y1="538.908" x2="1109.216" y2="512.823"/>
	<line class="st1" x1="1107.054" y1="510.271" x2="1048.034" y2="481.581"/>
	<path class="st1" d="M1034.773,469.136"/>
	<line class="st1" x1="1017.241" y1="450.326" x2="1040.028" y2="474.807"/>
	<line class="st1" x1="1008.772" y1="433.236" x2="1005.077" y2="409.063"/>
	<line class="st1" x1="1002.204" y1="400.287" x2="997.739" y2="347.938"/>

		<circle class="st2" cx="1501.416" cy="234.727" r="22.171"/>

			<path class="st2" d="M1531.604,226.057c4.779,16.646-4.874,34.077-21.519,38.858c-16.645,4.78-34.078-4.873-38.858-21.518
				c-4.78-16.647,4.872-34.078,21.518-38.86C1509.392,199.757,1526.824,209.411,1531.604,226.057z M1473.595,242.718
				c4.406,15.34,20.471,24.236,35.811,19.83c15.341-4.405,24.236-20.47,19.831-35.811c-4.406-15.34-20.472-24.237-35.812-19.831
				C1478.086,211.313,1469.188,227.376,1473.595,242.718z"/>

		<circle class="st0" cx="1506.659" cy="234.021" r="4.927"/>

	<circle class="st2" cx="1011.476" cy="444.163" r="12.933"/>
	<circle class="st2" cx="1042.065" cy="481.511" r="8.623"/>
	<circle class="st2" cx="1002.03" cy="404.586" r="8.622"/>
	<circle class="st2" cx="996.868" cy="341.992" r="8.622"/>
	<circle class="st2" cx="1142.817" cy="542.282" r="8.622"/>
	<circle class="st2" cx="1309.269" cy="274.054" r="8.622"/>
	<circle class="st2" cx="1377.554" cy="346.711" r="8.622"/>
	<circle class="st2" cx="1642.863" cy="360.219" r="8.622"/>
	<circle class="st2" cx="1686.503" cy="351.53" r="8.622"/>
	<circle class="st2" cx="1579.971" cy="270.636" r="8.622"/>
	<circle class="st2" cx="1109.444" cy="510.857" r="4.927"/>
	<circle class="st2" cx="1352.82" cy="323.059" r="4.927"/>
	<circle class="st2" cx="1379.204" cy="316.762" r="4.927"/>
	<circle class="st2" cx="1667.595" cy="504.335" r="4.927"/>

		<circle class="st2" cx="1585.227" cy="525.427" r="8.622"/>

			<path class="st2" d="M1602.395,520.499c2.718,9.466-2.771,19.378-12.237,22.096c-9.466,2.719-19.376-2.77-22.095-12.236
				c-2.72-9.466,2.771-19.377,12.235-22.095C1589.762,505.544,1599.676,511.034,1602.395,520.499z M1570.43,529.68
				c2.344,8.16,10.888,12.891,19.048,10.547c8.159-2.344,12.891-10.888,10.547-19.048c-2.343-8.161-10.888-12.894-19.049-10.548
				C1572.817,512.975,1568.085,521.519,1570.43,529.68z"/>

		<circle class="st2" cx="1267.604" cy="303.748" r="19.502"/>
		<circle class="st0" cx="1273.174" cy="306.831" r="6.001"/>

</g>
<g id="gemini">
	<line class="st1" x1="2230.901" y1="738.858" x2="2205.239" y2="725.514"/>
	<line class="st1" x1="2261.284" y1="624.307" x2="2305.419" y2="646.478"/>
	<line class="st1" x1="2049.684" y1="454.689" x2="1883.349" y2="376.32"/>

		<circle class="st2" cx="2317.831" cy="653.342" r="16.012"/>
		<circle class="st0" cx="2323.927" cy="656.718" r="4.927"/>

		<circle class="st2" cx="2242.325" cy="742.949" r="16.012"/>
		<circle class="st0" cx="2248.421" cy="746.323" r="4.927"/>

		<circle class="st2" cx="1869.761" cy="369.381" r="16.012"/>
		<circle class="st0" cx="1875.855" cy="372.757" r="4.927"/>

	<line class="st1" x1="2197.233" y1="719.971" x2="2105.009" y2="675.27"/>
	<line class="st1" x1="2096.386" y1="670.651" x2="1930.257" y2="571.856"/>
	<line class="st1" x1="1988.662" y1="751.585" x2="2098.079" y2="679.119"/>
	<line class="st1" x1="2106.085" y1="673.268" x2="2183.069" y2="625.745"/>
	<line class="st1" x1="2192.308" y1="621.434" x2="2251.429" y2="618.764"/>
	<line class="st1" x1="2261.694" y1="620.407" x2="2313.017" y2="573.396"/>
	<line class="st1" x1="2254.304" y1="617.533" x2="2170.956" y2="485.533"/>
	<line class="st1" x1="2168.493" y1="483.274" x2="2167.056" y2="380.631"/>
	<line class="st1" x1="2164.798" y1="481.427" x2="2083.094" y2="463.977"/>
	<line class="st1" x1="1795.999" y1="521.048" x2="1913.423" y2="566.314"/>
	<line class="st1" x1="1824.431" y1="457.203" x2="1917.632" y2="560.155"/>
	<line class="st1" x1="1746.216" y1="526.077" x2="1777.728" y2="518.277"/>
	<line class="st1" x1="1682.578" y1="555.741" x2="1707.315" y2="542.191"/>
	<line class="st1" x1="1932.413" y1="293.589" x2="2162.437" y2="370.264"/>
	<circle class="st2" cx="1817.429" cy="454.894" r="8.623"/>
	<circle class="st2" cx="1676.977" cy="559.311" r="8.622"/>
	<circle class="st2" cx="2099.772" cy="674.96" r="8.622"/>
	<circle class="st2" cx="2187.681" cy="624.082" r="8.622"/>
	<circle class="st2" cx="2256.372" cy="622.296" r="8.622"/>
	<circle class="st2" cx="2202.202" cy="723.716" r="8.622"/>

		<circle class="st2" cx="2066.316" cy="460.304" r="8.622"/>

			<path class="st2" d="M2083.877,455.26c2.782,9.684-2.834,19.823-12.518,22.606c-9.682,2.781-19.822-2.834-22.604-12.519
				c-2.781-9.684,2.834-19.824,12.516-22.605C2070.955,439.961,2081.096,445.577,2083.877,455.26z M2051.123,464.668
				c2.406,8.378,11.18,13.236,19.557,10.83c8.379-2.407,13.238-11.178,10.83-19.557c-2.406-8.378-11.178-13.236-19.557-10.83
				C2053.574,447.516,2048.717,456.29,2051.123,464.668z"/>

	<circle class="st2" cx="2315.856" cy="570.611" r="8.622"/>
	<circle class="st2" cx="2166.337" cy="482.837" r="8.622"/>
	<circle class="st2" cx="2166.19" cy="375.233" r="8.622"/>
	<circle class="st2" cx="1786.559" cy="521.429" r="11.085"/>
	<circle class="st2" cx="1922.991" cy="568.106" r="11.085"/>
	<circle class="st2" cx="1926.675" cy="295.366" r="11.085"/>
	<circle class="st2" cx="1986.02" cy="756.329" r="11.085"/>

			<path class="st2" d="M1746.548,522.668c3.469,12.078-3.533,24.723-15.611,28.193c-12.077,3.468-24.722-3.536-28.192-15.612
				c-3.467-12.078,3.535-24.723,15.612-28.192C1730.434,503.589,1743.079,510.591,1746.548,522.668z M1705.112,534.569
				c3.093,10.77,14.373,17.017,25.144,13.924c10.77-3.093,17.016-14.373,13.923-25.145c-3.092-10.77-14.373-17.016-25.145-13.923
				C1708.263,512.518,1702.019,523.799,1705.112,534.569z"/>

		<circle class="st2" cx="1724.647" cy="528.959" r="15.089"/>

</g>
</svg>
