<?xml version="1.0" encoding="utf-8"?>
<!DOCTYPE svg PUBLIC "-//W3C//DTD SVG 1.1//EN" "http://www.w3.org/Graphics/SVG/1.1/DTD/svg11.dtd">
<svg version="1.1" id="layer3" xmlns="http://www.w3.org/2000/svg" xmlns:xlink="http://www.w3.org/1999/xlink" x="0px"
	 y="0px" width="3344px" height="3344px" viewBox="0 0 3344 3344" style="enable-background:new 0 0 3344 3344;"
	 xml:space="preserve">
<style type="text/css">
<![CDATA[
	.st0{fill:#676767;}
]]>
</style>
<circle class="st0" cx="2648.442" cy="1505.505" r="5"/>
<circle class="st0" cx="823.442" cy="791.505" r="8"/>
<circle class="st0" cx="695.442" cy="734.505" r="5"/>
<g>
	<circle class="st0" cx="1160.442" cy="1403.505" r="2.5"/>
	<circle class="st0" cx="1161.442" cy="1413.505" r="2.5"/>
	<circle class="st0" cx="1171.442" cy="1415.505" r="2.5"/>
	<circle class="st0" cx="1178.442" cy="1408.505" r="2.5"/>
	<circle class="st0" cx="1176.442" cy="1399.505" r="2.5"/>
	<circle class="st0" cx="1167.442" cy="1397.505" r="2.5"/>
	<circle class="st0" cx="1169.442" cy="1406.505" r="2.5"/>
</g>
<g>
	<circle class="st0" cx="868.442" cy="2600.505" r="2.5"/>
	<circle class="st0" cx="869.442" cy="2610.505" r="2.5"/>
	<circle class="st0" cx="879.442" cy="2612.505" r="2.5"/>
	<circle class="st0" cx="886.442" cy="2605.505" r="2.5"/>
	<circle class="st0" cx="884.442" cy="2596.505" r="2.5"/>
	<circle class="st0" cx="875.442" cy="2594.505" r="2.5"/>
	<circle class="st0" cx="877.442" cy="2603.505" r="2.5"/>
</g>
<g>
	<circle class="st0" cx="1519.442" cy="2470.505" r="5"/>
	<g>
		<path class="st0" d="M1519.442,2481.172c-6.065,0-11-4.935-11-11s4.935-11,11-11s11,4.935,11,11
			S1525.508,2481.172,1519.442,2481.172z M1519.442,2461.172c-4.963,0-9,4.038-9,9s4.037,9,9,9s9-4.038,9-9
			S1524.405,2461.172,1519.442,2461.172z"/>
	</g>
</g>
<circle class="st0" cx="2196.442" cy="950.505" r="8"/>
<circle class="st0" cx="1940.442" cy="1008.505" r="5"/>
<g>
	<circle class="st0" cx="2402.099" cy="1582.505" r="5"/>
	<rect x="2400" y="1570" class="st0" width="3" height="24"/>
</g>
<g>
	<circle class="st0" cx="1410.417" cy="1765.503" r="7"/>
	
		<rect x="1409.256" y="1753.236" transform="matrix(0.9807 -0.1954 0.1954 0.9807 -317.6902 309.5291)" class="st0" width="1.999" height="24"/>
</g>
<g>
	<circle class="st0" cx="1851.391" cy="1747.5" r="5"/>
	
		<rect x="1850.259" y="1736.216" transform="matrix(0.9961 -0.0879 0.0879 0.9961 -146.4049 169.4762)" class="st0" width="2" height="21.999"/>
</g>
<g>
	<circle class="st0" cx="1263.442" cy="2420.505" r="7"/>
	
		<rect x="1261.255" y="2405.254" transform="matrix(0.9371 -0.3489 0.3489 0.9371 -765.1658 592.7645)" class="st0" width="3" height="30"/>
</g>
<g>
	<circle class="st0" cx="2122.442" cy="2220.505" r="2.5"/>
	<circle class="st0" cx="2123.442" cy="2230.505" r="2.5"/>
	<circle class="st0" cx="2133.442" cy="2232.505" r="2.5"/>
	<circle class="st0" cx="2140.442" cy="2225.505" r="2.5"/>
	<circle class="st0" cx="2138.442" cy="2216.505" r="2.5"/>
	<circle class="st0" cx="2129.442" cy="2214.505" r="2.5"/>
	<circle class="st0" cx="2131.442" cy="2223.505" r="2.5"/>
</g>
</svg>
