<?xml version="1.0" encoding="utf-8"?>
<!DOCTYPE svg PUBLIC "-//W3C//DTD SVG 1.1//EN" "http://www.w3.org/Graphics/SVG/1.1/DTD/svg11.dtd">
<svg version="1.1" id="layer2" xmlns="http://www.w3.org/2000/svg" xmlns:xlink="http://www.w3.org/1999/xlink" x="0px"
	 y="0px" width="3344px" height="3344px" viewBox="0 0 3344 3344" style="enable-background:new 0 0 3344 3344;"
	 xml:space="preserve">
<style type="text/css">
<![CDATA[
	.st0{fill:#2F3C49;}
]]>
</style>
<circle class="st0" cx="2006.456" cy="2032.014" r="7.321"/>
<circle class="st0" cx="2142.617" cy="1982.234" r="7.321"/>
<circle class="st0" cx="2189.442" cy="1588.505" r="5"/>
<circle class="st0" cx="2300.442" cy="1547.505" r="5"/>
<circle class="st0" cx="1969.442" cy="1403.505" r="5"/>
<circle class="st0" cx="1408.442" cy="1371.505" r="5"/>
<circle class="st0" cx="1522.442" cy="1311.505" r="5"/>
<circle class="st0" cx="1898.112" cy="1794.829" r="7.321"/>
<circle class="st0" cx="1690.209" cy="2023.229" r="10.249"/>
<circle class="st0" cx="1666.783" cy="1979.307" r="7.32"/>
<circle class="st0" cx="1681.442" cy="1591.505" r="5"/>
<circle class="st0" cx="1504.268" cy="1739.193" r="7.32"/>
<circle class="st0" cx="1699.442" cy="1530.505" r="5"/>
<circle class="st0" cx="1615.442" cy="1518.505" r="5"/>
<circle class="st0" cx="1532.442" cy="1575.505" r="5"/>
<circle class="st0" cx="1509.442" cy="1511.505" r="5"/>
<circle class="st0" cx="1485.442" cy="1533.505" r="5"/>
<circle class="st0" cx="1447.442" cy="1665.505" r="5"/>
<circle class="st0" cx="1499.442" cy="1723.505" r="5"/>
<circle class="st0" cx="1365.442" cy="1780.505" r="5"/>
<circle class="st0" cx="1530.442" cy="1796.505" r="5"/>
<circle class="st0" cx="1533.442" cy="1827.505" r="5"/>
<circle class="st0" cx="1679.442" cy="1887.505" r="5"/>
<circle class="st0" cx="1591.442" cy="1904.505" r="5"/>
<circle class="st0" cx="1579.442" cy="1964.505" r="5"/>
<circle class="st0" cx="1495.442" cy="1929.505" r="5"/>
<circle class="st0" cx="1483.442" cy="2052.505" r="5"/>
<circle class="st0" cx="1670.442" cy="2105.505" r="5"/>
<circle class="st0" cx="1695.442" cy="2119.505" r="5"/>
<circle class="st0" cx="1568.442" cy="2272.505" r="5"/>
<circle class="st0" cx="1603.442" cy="2388.505" r="5"/>
<circle class="st0" cx="1625.442" cy="2385.505" r="5"/>
<circle class="st0" cx="1726.442" cy="2401.505" r="5"/>
<circle class="st0" cx="1932.442" cy="2167.505" r="5"/>
<circle class="st0" cx="1864.442" cy="2039.505" r="5"/>
<circle class="st0" cx="1842.442" cy="1973.505" r="5"/>
<circle class="st0" cx="1842.442" cy="1959.505" r="5"/>
<circle class="st0" cx="1985.442" cy="1998.505" r="5"/>
<circle class="st0" cx="1840.442" cy="2049.505" r="5"/>
<circle class="st0" cx="1741.442" cy="2038.505" r="5"/>
<circle class="st0" cx="1737.442" cy="2020.505" r="5"/>
<circle class="st0" cx="2034.442" cy="2274.505" r="5"/>
<circle class="st0" cx="2238.442" cy="2264.505" r="7"/>
<circle class="st0" cx="2801.442" cy="2251.505" r="7"/>
<circle class="st0" cx="2311.442" cy="2217.505" r="7"/>
<circle class="st0" cx="2060.442" cy="2114.505" r="5"/>
<circle class="st0" cx="2163.442" cy="2244.505" r="5"/>
<circle class="st0" cx="2620.442" cy="2291.505" r="4"/>
<circle class="st0" cx="2630.442" cy="2264.505" r="4"/>
<circle class="st0" cx="2593.442" cy="2259.505" r="4"/>
<circle class="st0" cx="2958.442" cy="2304.505" r="4"/>
<circle class="st0" cx="3047.442" cy="2209.505" r="4"/>
<circle class="st0" cx="3124.442" cy="2154.505" r="4"/>
<circle class="st0" cx="2159.442" cy="2004.505" r="5"/>
<circle class="st0" cx="2543.442" cy="1994.505" r="5"/>
<circle class="st0" cx="2446.442" cy="1929.505" r="5"/>
<circle class="st0" cx="2562.442" cy="1805.505" r="5"/>
<circle class="st0" cx="2517.442" cy="1712.505" r="5"/>
<circle class="st0" cx="2684.442" cy="1658.505" r="5"/>
<circle class="st0" cx="2756.442" cy="1480.505" r="5"/>
<circle class="st0" cx="2761.442" cy="1464.505" r="4"/>
<circle class="st0" cx="2784.442" cy="1430.505" r="4"/>
<circle class="st0" cx="2629.442" cy="1464.505" r="4"/>
<circle class="st0" cx="2906.442" cy="1440.505" r="4"/>
<circle class="st0" cx="2955.442" cy="1396.505" r="4"/>
<circle class="st0" cx="3074.442" cy="1265.505" r="4"/>
<circle class="st0" cx="3024.442" cy="1195.505" r="4"/>
<circle class="st0" cx="2703.442" cy="1122.505" r="4"/>
<circle class="st0" cx="2489.442" cy="1122.505" r="4"/>
<circle class="st0" cx="2471.442" cy="1046.505" r="4"/>
<circle class="st0" cx="2618.442" cy="974.505" r="4"/>
<circle class="st0" cx="2827.442" cy="759.505" r="4"/>
<circle class="st0" cx="2937.442" cy="896.505" r="4"/>
<circle class="st0" cx="2925.442" cy="937.505" r="4"/>
<circle class="st0" cx="2978.442" cy="870.505" r="4"/>
<circle class="st0" cx="3019.442" cy="1179.505" r="4"/>
<circle class="st0" cx="2808.442" cy="1264.505" r="7"/>
<circle class="st0" cx="2625.442" cy="1035.505" r="7"/>
<circle class="st0" cx="1773.442" cy="654.505" r="7"/>
<circle class="st0" cx="2594.442" cy="1688.505" r="5"/>
<circle class="st0" cx="2575.442" cy="1828.505" r="5"/>
<circle class="st0" cx="2596.442" cy="1896.505" r="5"/>
<circle class="st0" cx="2716.442" cy="1947.505" r="5"/>
<circle class="st0" cx="2987.442" cy="1835.505" r="5"/>
<circle class="st0" cx="3164.442" cy="1894.505" r="5"/>
<circle class="st0" cx="3076.442" cy="1766.505" r="5"/>
<circle class="st0" cx="3060.442" cy="1549.505" r="5"/>
<circle class="st0" cx="3106.442" cy="1569.505" r="5"/>
<circle class="st0" cx="2834.442" cy="1547.505" r="5"/>
<circle class="st0" cx="2744.442" cy="1619.505" r="5"/>
<circle class="st0" cx="2751.442" cy="1699.505" r="5"/>
<circle class="st0" cx="3146.442" cy="1779.505" r="5"/>
<circle class="st0" cx="2828.442" cy="1931.505" r="5"/>
<circle class="st0" cx="2735.442" cy="2022.505" r="5"/>
<circle class="st0" cx="1646.442" cy="2286.505" r="5"/>
<circle class="st0" cx="1672.442" cy="2263.505" r="5"/>
<circle class="st0" cx="1595.442" cy="2448.505" r="5"/>
<circle class="st0" cx="1742.442" cy="2578.505" r="5"/>
<circle class="st0" cx="1571.442" cy="2647.505" r="5"/>
<circle class="st0" cx="1464.442" cy="2674.505" r="5"/>
<circle class="st0" cx="1486.442" cy="2638.505" r="5"/>
<circle class="st0" cx="1419.442" cy="2610.505" r="5"/>
<circle class="st0" cx="1375.442" cy="2580.505" r="5"/>
<circle class="st0" cx="1352.442" cy="2608.505" r="5"/>
<circle class="st0" cx="1307.442" cy="2595.505" r="5"/>
<circle class="st0" cx="1284.442" cy="2592.505" r="5"/>
<circle class="st0" cx="1260.442" cy="2616.505" r="5"/>
<circle class="st0" cx="1223.442" cy="2652.505" r="5"/>
<circle class="st0" cx="1243.442" cy="2725.505" r="5"/>
<circle class="st0" cx="1219.442" cy="2780.505" r="5"/>
<circle class="st0" cx="1204.442" cy="2818.505" r="5"/>
<circle class="st0" cx="1207.442" cy="2835.505" r="5"/>
<circle class="st0" cx="1239.442" cy="2888.505" r="5"/>
<circle class="st0" cx="986.442" cy="2993.505" r="5"/>
<circle class="st0" cx="1165.442" cy="2958.505" r="5"/>
<circle class="st0" cx="1247.442" cy="3111.505" r="5"/>
<circle class="st0" cx="1339.442" cy="3189.505" r="5"/>
<circle class="st0" cx="1504.442" cy="3256.505" r="5"/>
<circle class="st0" cx="1444.442" cy="3083.505" r="5"/>
<circle class="st0" cx="1486.442" cy="3092.505" r="5"/>
<circle class="st0" cx="1555.442" cy="3099.505" r="5"/>
<circle class="st0" cx="1708.442" cy="3266.505" r="5"/>
<circle class="st0" cx="1278.442" cy="3076.505" r="5"/>
<circle class="st0" cx="1402.442" cy="2932.505" r="5"/>
<circle class="st0" cx="1246.442" cy="2825.505" r="5"/>
<circle class="st0" cx="1327.442" cy="2866.505" r="5"/>
<circle class="st0" cx="1289.442" cy="2820.505" r="5"/>
<circle class="st0" cx="1183.442" cy="2823.505" r="5"/>
<circle class="st0" cx="1078.442" cy="2808.505" r="5"/>
<circle class="st0" cx="1092.442" cy="2764.505" r="5"/>
<circle class="st0" cx="878.442" cy="2767.505" r="5"/>
<circle class="st0" cx="706.442" cy="2899.505" r="5"/>
<circle class="st0" cx="1076.442" cy="2727.505" r="5"/>
<circle class="st0" cx="1055.442" cy="2659.505" r="5"/>
<circle class="st0" cx="1198.442" cy="2584.505" r="5"/>
<circle class="st0" cx="1188.442" cy="2672.505" r="7"/>
<circle class="st0" cx="1227.442" cy="2743.505" r="7"/>
<circle class="st0" cx="1307.442" cy="2767.505" r="7"/>
<circle class="st0" cx="1566.442" cy="2714.505" r="5"/>
<circle class="st0" cx="1607.442" cy="2733.505" r="5"/>
<circle class="st0" cx="1647.442" cy="2723.505" r="5"/>
<circle class="st0" cx="1731.442" cy="2744.505" r="5"/>
<circle class="st0" cx="1673.442" cy="2815.505" r="5"/>
<circle class="st0" cx="1486.442" cy="2762.505" r="5"/>
<circle class="st0" cx="1788.442" cy="2770.505" r="5"/>
<circle class="st0" cx="1824.442" cy="2710.505" r="5"/>
<circle class="st0" cx="1850.442" cy="2716.505" r="5"/>
<circle class="st0" cx="1816.442" cy="2883.505" r="5"/>
<circle class="st0" cx="1908.442" cy="2893.505" r="5"/>
<circle class="st0" cx="1947.442" cy="2954.505" r="5"/>
<circle class="st0" cx="2006.442" cy="3167.505" r="4"/>
<circle class="st0" cx="2154.442" cy="2851.505" r="5"/>
<circle class="st0" cx="2100.442" cy="2750.505" r="5"/>
<circle class="st0" cx="2237.442" cy="2674.505" r="5"/>
<circle class="st0" cx="2273.442" cy="2866.505" r="5"/>
<circle class="st0" cx="2274.442" cy="2899.505" r="5"/>
<circle class="st0" cx="2471.442" cy="2809.505" r="5"/>
<circle class="st0" cx="1881.442" cy="2911.505" r="5"/>
<circle class="st0" cx="1930.442" cy="3110.505" r="5"/>
<circle class="st0" cx="1863.442" cy="3216.505" r="5"/>
<circle class="st0" cx="1884.442" cy="2712.505" r="5"/>
<circle class="st0" cx="2019.442" cy="2525.505" r="5"/>
<circle class="st0" cx="1791.442" cy="2494.505" r="5"/>
<circle class="st0" cx="1858.442" cy="2535.505" r="5"/>
<circle class="st0" cx="2016.442" cy="2460.505" r="4"/>
<circle class="st0" cx="1462.442" cy="2464.505" r="5"/>
<circle class="st0" cx="1466.442" cy="2483.505" r="5"/>
<circle class="st0" cx="1343.442" cy="2051.505" r="5"/>
<circle class="st0" cx="1276.442" cy="2058.505" r="5"/>
<circle class="st0" cx="1228.442" cy="2015.505" r="5"/>
<circle class="st0" cx="1185.442" cy="2038.505" r="5"/>
<circle class="st0" cx="1209.442" cy="1949.505" r="5"/>
<circle class="st0" cx="1548.442" cy="2029.505" r="5"/>
<circle class="st0" cx="1615.442" cy="2004.505" r="5"/>
<circle class="st0" cx="1375.442" cy="1888.505" r="5"/>
<circle class="st0" cx="1069.442" cy="1884.505" r="5"/>
<circle class="st0" cx="1056.442" cy="1842.505" r="5"/>
<circle class="st0" cx="969.442" cy="1926.505" r="5"/>
<circle class="st0" cx="807.442" cy="1830.505" r="5"/>
<circle class="st0" cx="955.442" cy="1743.505" r="5"/>
<circle class="st0" cx="1033.442" cy="1668.505" r="5"/>
<circle class="st0" cx="1075.442" cy="1735.505" r="5"/>
<circle class="st0" cx="812.442" cy="1715.505" r="5"/>
<circle class="st0" cx="879.442" cy="1717.505" r="5"/>
<circle class="st0" cx="882.442" cy="1689.505" r="5"/>
<circle class="st0" cx="963.442" cy="1537.505" r="5"/>
<circle class="st0" cx="970.442" cy="1491.505" r="5"/>
<circle class="st0" cx="884.442" cy="1417.505" r="5"/>
<circle class="st0" cx="866.442" cy="1392.505" r="5"/>
<circle class="st0" cx="802.442" cy="1394.505" r="5"/>
<circle class="st0" cx="683.442" cy="1379.505" r="5"/>
<circle class="st0" cx="631.442" cy="1320.505" r="5"/>
<circle class="st0" cx="481.442" cy="1309.505" r="5"/>
<circle class="st0" cx="314.442" cy="1328.505" r="5"/>
<circle class="st0" cx="772.442" cy="1261.505" r="5"/>
<circle class="st0" cx="801.442" cy="1203.505" r="5"/>
<circle class="st0" cx="705.442" cy="1184.505" r="5"/>
<circle class="st0" cx="724.442" cy="1158.505" r="5"/>
<circle class="st0" cx="754.442" cy="1076.505" r="5"/>
<circle class="st0" cx="819.442" cy="1152.505" r="5"/>
<circle class="st0" cx="893.442" cy="1157.505" r="5"/>
<circle class="st0" cx="670.442" cy="1134.505" r="5"/>
<circle class="st0" cx="1014.442" cy="1436.505" r="5"/>
<circle class="st0" cx="1213.442" cy="1287.505" r="5"/>
<circle class="st0" cx="1200.442" cy="1246.505" r="5"/>
<circle class="st0" cx="1159.442" cy="1154.505" r="5"/>
<circle class="st0" cx="1257.442" cy="1135.505" r="5"/>
<circle class="st0" cx="1095.442" cy="1041.505" r="5"/>
<circle class="st0" cx="1418.442" cy="1052.505" r="5"/>
<circle class="st0" cx="1442.442" cy="1121.505" r="5"/>
<circle class="st0" cx="1254.442" cy="1248.505" r="5"/>
<circle class="st0" cx="1115.442" cy="953.505" r="5"/>
<circle class="st0" cx="995.442" cy="970.505" r="5"/>
<circle class="st0" cx="944.442" cy="878.505" r="5"/>
<circle class="st0" cx="922.442" cy="811.505" r="5"/>
<circle class="st0" cx="900.442" cy="553.505" r="5"/>
<circle class="st0" cx="971.442" cy="540.505" r="5"/>
<circle class="st0" cx="977.442" cy="504.505" r="5"/>
<circle class="st0" cx="859.442" cy="477.505" r="5"/>
<circle class="st0" cx="942.442" cy="457.505" r="5"/>
<circle class="st0" cx="969.442" cy="448.505" r="5"/>
<circle class="st0" cx="777.442" cy="263.505" r="5"/>
<circle class="st0" cx="1055.442" cy="438.505" r="5"/>
<circle class="st0" cx="967.442" cy="196.505" r="8"/>
<circle class="st0" cx="945.442" cy="180.505" r="8"/>
<circle class="st0" cx="1054.442" cy="184.505" r="6"/>
<circle class="st0" cx="668.442" cy="507.505" r="4"/>
<circle class="st0" cx="629.442" cy="558.505" r="4"/>
<circle class="st0" cx="611.442" cy="548.505" r="4"/>
<circle class="st0" cx="1142.442" cy="389.505" r="5"/>
<circle class="st0" cx="1164.442" cy="326.505" r="5"/>
<circle class="st0" cx="1172.442" cy="303.505" r="5"/>
<circle class="st0" cx="1064.442" cy="530.505" r="5"/>
<circle class="st0" cx="1109.442" cy="503.505" r="5"/>
<circle class="st0" cx="1197.442" cy="559.505" r="5"/>
<circle class="st0" cx="1548.442" cy="406.505" r="5"/>
<circle class="st0" cx="1494.442" cy="335.505" r="5"/>
<circle class="st0" cx="1603.442" cy="448.505" r="5"/>
<circle class="st0" cx="1722.442" cy="472.505" r="5"/>
<circle class="st0" cx="1280.442" cy="528.505" r="5"/>
<circle class="st0" cx="1469.442" cy="533.505" r="5"/>
<circle class="st0" cx="1347.442" cy="379.505" r="5"/>
<circle class="st0" cx="1322.442" cy="329.505" r="5"/>
<circle class="st0" cx="1267.442" cy="563.505" r="8"/>
<circle class="st0" cx="1370.442" cy="564.505" r="8"/>
<circle class="st0" cx="834.442" cy="407.505" r="5"/>
<circle class="st0" cx="778.442" cy="587.505" r="5"/>
<circle class="st0" cx="772.442" cy="568.505" r="5"/>
<circle class="st0" cx="767.442" cy="544.505" r="5"/>
<circle class="st0" cx="742.442" cy="586.505" r="5"/>
<circle class="st0" cx="727.442" cy="536.505" r="5"/>
<circle class="st0" cx="1075.442" cy="847.505" r="5"/>
<circle class="st0" cx="1079.442" cy="826.505" r="5"/>
<circle class="st0" cx="826.442" cy="953.505" r="5"/>
<circle class="st0" cx="566.442" cy="930.505" r="4"/>
<circle class="st0" cx="568.442" cy="911.505" r="4"/>
<circle class="st0" cx="295.442" cy="747.505" r="4"/>
<circle class="st0" cx="457.442" cy="773.505" r="4"/>
<circle class="st0" cx="325.442" cy="1027.505" r="4"/>
<circle class="st0" cx="1245.442" cy="1308.505" r="5"/>
<circle class="st0" cx="1233.442" cy="1327.505" r="5"/>
<circle class="st0" cx="1237.442" cy="1399.505" r="5"/>
<circle class="st0" cx="1358.442" cy="1499.505" r="5"/>
<circle class="st0" cx="1144.442" cy="1306.505" r="5"/>
<circle class="st0" cx="1078.442" cy="1336.505" r="5"/>
<g>
	<circle class="st0" cx="1043.442" cy="1573.505" r="2.5"/>
	<circle class="st0" cx="1044.442" cy="1583.505" r="2.5"/>
	<circle class="st0" cx="1054.442" cy="1585.505" r="2.5"/>
	<circle class="st0" cx="1061.442" cy="1578.505" r="2.5"/>
	<circle class="st0" cx="1059.442" cy="1569.505" r="2.5"/>
	<circle class="st0" cx="1050.442" cy="1567.505" r="2.5"/>
	<circle class="st0" cx="1052.442" cy="1576.505" r="2.5"/>
</g>
<g>
	<circle class="st0" cx="1813.442" cy="3179.505" r="2.5"/>
	<circle class="st0" cx="1814.442" cy="3189.505" r="2.5"/>
	<circle class="st0" cx="1824.442" cy="3191.505" r="2.5"/>
	<circle class="st0" cx="1831.442" cy="3184.505" r="2.5"/>
	<circle class="st0" cx="1829.442" cy="3175.505" r="2.5"/>
	<circle class="st0" cx="1820.442" cy="3173.505" r="2.5"/>
	<circle class="st0" cx="1822.442" cy="3182.505" r="2.5"/>
</g>
<g>
	<circle class="st0" cx="1531.442" cy="757.505" r="2.5"/>
	<circle class="st0" cx="1532.442" cy="767.505" r="2.5"/>
	<circle class="st0" cx="1542.442" cy="769.505" r="2.5"/>
	<circle class="st0" cx="1549.442" cy="762.505" r="2.5"/>
	<circle class="st0" cx="1547.442" cy="753.505" r="2.5"/>
	<circle class="st0" cx="1538.442" cy="751.505" r="2.5"/>
	<circle class="st0" cx="1540.442" cy="760.505" r="2.5"/>
</g>
<g>
	<circle class="st0" cx="1220.442" cy="686.505" r="2.5"/>
	<circle class="st0" cx="1221.442" cy="696.505" r="2.5"/>
	<circle class="st0" cx="1231.442" cy="698.505" r="2.5"/>
	<circle class="st0" cx="1238.442" cy="691.505" r="2.5"/>
	<circle class="st0" cx="1236.442" cy="682.505" r="2.5"/>
	<circle class="st0" cx="1227.442" cy="680.505" r="2.5"/>
	<circle class="st0" cx="1229.442" cy="689.505" r="2.5"/>
</g>
<g>
	<circle class="st0" cx="2267.442" cy="386.505" r="2.5"/>
	<circle class="st0" cx="2268.442" cy="396.505" r="2.5"/>
	<circle class="st0" cx="2278.442" cy="398.505" r="2.5"/>
	<circle class="st0" cx="2285.442" cy="391.505" r="2.5"/>
	<circle class="st0" cx="2283.442" cy="382.505" r="2.5"/>
	<circle class="st0" cx="2274.442" cy="380.505" r="2.5"/>
	<circle class="st0" cx="2276.442" cy="389.505" r="2.5"/>
</g>
<g>
	<circle class="st0" cx="2136.442" cy="495.505" r="2.5"/>
	<circle class="st0" cx="2137.442" cy="505.505" r="2.5"/>
	<circle class="st0" cx="2147.442" cy="507.505" r="2.5"/>
	<circle class="st0" cx="2154.442" cy="500.505" r="2.5"/>
	<circle class="st0" cx="2152.442" cy="491.505" r="2.5"/>
	<circle class="st0" cx="2143.442" cy="489.505" r="2.5"/>
	<circle class="st0" cx="2145.442" cy="498.505" r="2.5"/>
</g>
<g>
	<circle class="st0" cx="1318.442" cy="482.505" r="2.5"/>
	<circle class="st0" cx="1319.442" cy="492.505" r="2.5"/>
	<circle class="st0" cx="1329.442" cy="494.505" r="2.5"/>
	<circle class="st0" cx="1336.442" cy="487.505" r="2.5"/>
	<circle class="st0" cx="1334.442" cy="478.505" r="2.5"/>
	<circle class="st0" cx="1325.442" cy="476.505" r="2.5"/>
	<circle class="st0" cx="1327.442" cy="485.505" r="2.5"/>
</g>
<g>
	<circle class="st0" cx="1266.442" cy="279.505" r="2.5"/>
	<circle class="st0" cx="1267.442" cy="289.505" r="2.5"/>
	<circle class="st0" cx="1277.442" cy="291.505" r="2.5"/>
	<circle class="st0" cx="1284.442" cy="284.505" r="2.5"/>
	<circle class="st0" cx="1282.442" cy="275.505" r="2.5"/>
	<circle class="st0" cx="1273.442" cy="273.505" r="2.5"/>
	<circle class="st0" cx="1275.442" cy="282.505" r="2.5"/>
</g>
<g>
	<circle class="st0" cx="1389.442" cy="115.505" r="2.5"/>
	<circle class="st0" cx="1390.442" cy="125.505" r="2.5"/>
	<circle class="st0" cx="1400.442" cy="127.505" r="2.5"/>
	<circle class="st0" cx="1407.442" cy="120.505" r="2.5"/>
	<circle class="st0" cx="1405.442" cy="111.505" r="2.5"/>
	<circle class="st0" cx="1396.442" cy="109.505" r="2.5"/>
	<circle class="st0" cx="1398.442" cy="118.505" r="2.5"/>
</g>
<g>
	<circle class="st0" cx="1197.442" cy="717.505" r="2.5"/>
	<circle class="st0" cx="1198.442" cy="727.505" r="2.5"/>
	<circle class="st0" cx="1208.442" cy="729.505" r="2.5"/>
	<circle class="st0" cx="1215.442" cy="722.505" r="2.5"/>
	<circle class="st0" cx="1213.442" cy="713.505" r="2.5"/>
	<circle class="st0" cx="1204.442" cy="711.505" r="2.5"/>
	<circle class="st0" cx="1206.442" cy="720.505" r="2.5"/>
</g>
<circle class="st0" cx="783.442" cy="1578.505" r="5"/>
<circle class="st0" cx="784.442" cy="1555.505" r="5"/>
<circle class="st0" cx="773.442" cy="1512.505" r="5"/>
<circle class="st0" cx="740.442" cy="1496.505" r="5"/>
<circle class="st0" cx="699.442" cy="1494.505" r="5"/>
<circle class="st0" cx="766.442" cy="1773.505" r="5"/>
<circle class="st0" cx="846.442" cy="1920.505" r="5"/>
<circle class="st0" cx="967.442" cy="2044.505" r="5"/>
<circle class="st0" cx="996.442" cy="2244.505" r="5"/>
<circle class="st0" cx="835.442" cy="2205.505" r="5"/>
<circle class="st0" cx="852.442" cy="2180.505" r="5"/>
<circle class="st0" cx="866.442" cy="2156.505" r="5"/>
<circle class="st0" cx="752.442" cy="2056.505" r="5"/>
<circle class="st0" cx="755.442" cy="2036.505" r="5"/>
<circle class="st0" cx="876.442" cy="2116.505" r="5"/>
<circle class="st0" cx="1136.442" cy="2204.505" r="5"/>
<circle class="st0" cx="1466.442" cy="2223.505" r="5"/>
<circle class="st0" cx="1463.442" cy="2247.505" r="5"/>
<circle class="st0" cx="1457.442" cy="2324.505" r="5"/>
<circle class="st0" cx="1396.442" cy="2369.505" r="5"/>
<circle class="st0" cx="1304.442" cy="2359.505" r="5"/>
<circle class="st0" cx="1238.442" cy="2379.505" r="5"/>
<circle class="st0" cx="1198.442" cy="2363.505" r="5"/>
<circle class="st0" cx="1193.442" cy="2323.505" r="5"/>
<circle class="st0" cx="1118.442" cy="2304.505" r="5"/>
<circle class="st0" cx="1113.442" cy="2358.505" r="5"/>
<circle class="st0" cx="1010.442" cy="2343.505" r="5"/>
<circle class="st0" cx="1024.442" cy="2362.505" r="5"/>
<circle class="st0" cx="1135.442" cy="2401.505" r="5"/>
<circle class="st0" cx="1017.442" cy="2441.505" r="5"/>
<circle class="st0" cx="725.442" cy="2386.505" r="5"/>
<circle class="st0" cx="676.442" cy="2292.505" r="5"/>
<circle class="st0" cx="554.442" cy="2221.505" r="5"/>
<circle class="st0" cx="497.442" cy="2172.505" r="5"/>
<circle class="st0" cx="484.442" cy="2149.505" r="5"/>
<circle class="st0" cx="546.442" cy="2027.505" r="5"/>
<circle class="st0" cx="455.442" cy="1986.505" r="5"/>
<circle class="st0" cx="633.442" cy="2083.505" r="5"/>
<circle class="st0" cx="633.442" cy="2108.505" r="5"/>
<circle class="st0" cx="356.442" cy="2044.505" r="5"/>
<circle class="st0" cx="293.442" cy="2212.505" r="5"/>
<circle class="st0" cx="854.442" cy="2480.505" r="5"/>
<circle class="st0" cx="797.442" cy="2517.505" r="5"/>
<circle class="st0" cx="502.442" cy="2570.505" r="5"/>
<circle class="st0" cx="192.442" cy="2315.505" r="5"/>
<circle class="st0" cx="469.442" cy="2740.505" r="5"/>
<circle class="st0" cx="367.442" cy="2625.505" r="5"/>
<circle class="st0" cx="1006.442" cy="2399.505" r="5"/>
<circle class="st0" cx="1435.442" cy="2335.505" r="5"/>
<circle class="st0" cx="947.442" cy="2053.505" r="5"/>
<circle class="st0" cx="1023.442" cy="2103.505" r="8"/>
<circle class="st0" cx="962.442" cy="1630.505" r="8"/>
<circle class="st0" cx="181.442" cy="1196.505" r="8"/>
<circle class="st0" cx="1102.442" cy="2220.505" r="8"/>
<circle class="st0" cx="1480.442" cy="2382.505" r="8"/>
<circle class="st0" cx="1633.442" cy="2895.505" r="8"/>
<circle class="st0" cx="2019.442" cy="3221.505" r="8"/>
<circle class="st0" cx="2228.442" cy="3093.505" r="8"/>
<circle class="st0" cx="1515.442" cy="2906.505" r="8"/>
<circle class="st0" cx="1485.442" cy="2824.505" r="8"/>
<circle class="st0" cx="1360.442" cy="1839.505" r="5"/>
<circle class="st0" cx="1236.442" cy="1836.505" r="5"/>
<circle class="st0" cx="1101.442" cy="1717.505" r="5"/>
<circle class="st0" cx="1373.442" cy="1922.505" r="5"/>
<circle class="st0" cx="1511.442" cy="1834.505" r="5"/>
<circle class="st0" cx="1511.442" cy="1706.505" r="5"/>
<circle class="st0" cx="1536.442" cy="1718.505" r="5"/>
<circle class="st0" cx="1434.442" cy="1241.505" r="5"/>
<circle class="st0" cx="1814.442" cy="1313.505" r="5"/>
<circle class="st0" cx="1589.442" cy="1259.505" r="5"/>
<circle class="st0" cx="1578.442" cy="1240.505" r="4"/>
<circle class="st0" cx="1639.442" cy="1101.505" r="4"/>
<circle class="st0" cx="1707.442" cy="1090.505" r="4"/>
<circle class="st0" cx="1654.442" cy="1024.505" r="4"/>
<circle class="st0" cx="1868.442" cy="1242.505" r="5"/>
<circle class="st0" cx="1893.442" cy="1217.505" r="5"/>
<circle class="st0" cx="1970.442" cy="1113.505" r="5"/>
<circle class="st0" cx="1976.442" cy="1066.505" r="5"/>
<circle class="st0" cx="1948.442" cy="927.505" r="5"/>
<circle class="st0" cx="1807.442" cy="983.505" r="5"/>
<circle class="st0" cx="1794.442" cy="898.505" r="5"/>
<circle class="st0" cx="1835.442" cy="728.505" r="5"/>
<circle class="st0" cx="1692.442" cy="683.505" r="5"/>
<circle class="st0" cx="1556.442" cy="774.505" r="5"/>
<circle class="st0" cx="1561.442" cy="763.505" r="5"/>
<circle class="st0" cx="1644.442" cy="729.505" r="5"/>
<circle class="st0" cx="1515.442" cy="777.505" r="5"/>
<circle class="st0" cx="1534.442" cy="819.505" r="5"/>
<circle class="st0" cx="1301.442" cy="774.505" r="5"/>
<circle class="st0" cx="1318.442" cy="769.505" r="8"/>
<circle class="st0" cx="1073.442" cy="928.505" r="8"/>
<circle class="st0" cx="1205.442" cy="780.505" r="5"/>
<circle class="st0" cx="1310.442" cy="743.505" r="5"/>
<circle class="st0" cx="1151.442" cy="720.505" r="5"/>
<circle class="st0" cx="1162.442" cy="727.505" r="5"/>
<circle class="st0" cx="1205.442" cy="676.505" r="5"/>
<circle class="st0" cx="1174.442" cy="813.505" r="5"/>
<circle class="st0" cx="1206.442" cy="832.505" r="5"/>
<circle class="st0" cx="1223.442" cy="859.505" r="5"/>
<circle class="st0" cx="1486.442" cy="916.505" r="5"/>
<circle class="st0" cx="1588.442" cy="832.505" r="5"/>
<circle class="st0" cx="1895.442" cy="662.505" r="5"/>
<circle class="st0" cx="1985.442" cy="639.505" r="5"/>
<circle class="st0" cx="1903.442" cy="564.505" r="5"/>
<circle class="st0" cx="1861.442" cy="371.505" r="5"/>
<circle class="st0" cx="1830.442" cy="346.505" r="5"/>
<circle class="st0" cx="1803.442" cy="310.505" r="5"/>
<circle class="st0" cx="1780.442" cy="236.505" r="5"/>
<circle class="st0" cx="1968.442" cy="77.505" r="5"/>
<circle class="st0" cx="1488.442" cy="257.505" r="5"/>
<circle class="st0" cx="1421.442" cy="221.505" r="5"/>
<circle class="st0" cx="1332.442" cy="253.505" r="5"/>
<circle class="st0" cx="1624.442" cy="207.505" r="5"/>
<circle class="st0" cx="1999.442" cy="302.505" r="5"/>
<circle class="st0" cx="2023.442" cy="105.505" r="5"/>
<circle class="st0" cx="2157.442" cy="252.505" r="5"/>
<circle class="st0" cx="2378.442" cy="429.505" r="5"/>
<circle class="st0" cx="2308.442" cy="281.505" r="5"/>
<circle class="st0" cx="2264.442" cy="601.505" r="5"/>
<circle class="st0" cx="2494.442" cy="532.505" r="5"/>
<circle class="st0" cx="2568.442" cy="484.505" r="5"/>
<circle class="st0" cx="2603.442" cy="450.505" r="5"/>
<g>
	<circle class="st0" cx="2570.442" cy="583.505" r="5"/>
	<g>
		<path class="st0" d="M2570.442,594.172c-6.065,0-11-4.935-11-11s4.935-11,11-11s11,4.935,11,11S2576.508,594.172,2570.442,594.172
			z M2570.442,574.172c-4.963,0-9,4.038-9,9s4.037,9,9,9s9-4.038,9-9S2575.405,574.172,2570.442,574.172z"/>
	</g>
</g>
<g>
	<circle class="st0" cx="1102.442" cy="436.505" r="5"/>
	<g>
		<path class="st0" d="M1102.442,447.172c-6.065,0-11-4.935-11-11s4.935-11,11-11s11,4.935,11,11S1108.508,447.172,1102.442,447.172
			z M1102.442,427.172c-4.963,0-9,4.038-9,9s4.037,9,9,9s9-4.038,9-9S1107.405,427.172,1102.442,427.172z"/>
	</g>
</g>
<circle class="st0" cx="2151.442" cy="667.505" r="5"/>
<circle class="st0" cx="2136.442" cy="651.505" r="5"/>
<circle class="st0" cx="2270.442" cy="473.505" r="8"/>
<circle class="st0" cx="1993.442" cy="579.505" r="5"/>
<circle class="st0" cx="1996.442" cy="909.505" r="5"/>
<circle class="st0" cx="2117.442" cy="933.505" r="5"/>
<circle class="st0" cx="2189.442" cy="938.505" r="5"/>
<circle class="st0" cx="2192.442" cy="962.505" r="5"/>
<circle class="st0" cx="2231.442" cy="1014.505" r="5"/>
<circle class="st0" cx="2149.442" cy="1065.505" r="5"/>
<circle class="st0" cx="2277.442" cy="1217.505" r="5"/>
<circle class="st0" cx="2083.442" cy="1302.505" r="4"/>
<circle class="st0" cx="2097.442" cy="1280.505" r="4"/>
<circle class="st0" cx="2376.442" cy="1310.505" r="5"/>
<circle class="st0" cx="2464.442" cy="1260.505" r="5"/>
<circle class="st0" cx="2531.442" cy="1318.505" r="5"/>
<circle class="st0" cx="2406.442" cy="1372.505" r="5"/>
<circle class="st0" cx="2430.442" cy="1443.505" r="5"/>
<circle class="st0" cx="2522.442" cy="1523.505" r="5"/>
<circle class="st0" cx="2335.442" cy="1215.505" r="5"/>
<circle class="st0" cx="2385.442" cy="1203.505" r="5"/>
<circle class="st0" cx="2406.442" cy="1196.505" r="5"/>
<circle class="st0" cx="2330.442" cy="1124.505" r="5"/>
<circle class="st0" cx="1948.442" cy="1376.505" r="5"/>
<circle class="st0" cx="2330.442" cy="1539.505" r="5"/>
<circle class="st0" cx="2347.442" cy="1723.505" r="5"/>
<circle class="st0" cx="2349.442" cy="1780.505" r="5"/>
<circle class="st0" cx="2243.442" cy="1780.505" r="5"/>
<circle class="st0" cx="2255.442" cy="1765.505" r="5"/>
<circle class="st0" cx="2228.442" cy="1738.505" r="5"/>
<circle class="st0" cx="2006.442" cy="1888.505" r="5"/>
<circle class="st0" cx="1899.575" cy="2182.816" r="7.32"/>
<circle class="st0" cx="1947.442" cy="1893.505" r="5"/>
<circle class="st0" cx="2102.442" cy="1930.505" r="5"/>
<g>
	<g>
		<path class="st0" d="M2487.292,303.599c-6.484,2.158-12.664,0.54-14.07-3.684c-1.405-4.223,2.573-9.221,9.059-11.379
			c6.483-2.158,12.665-0.54,14.07,3.684S2493.777,301.441,2487.292,303.599z M2482.911,290.433
			c-5.239,1.744-8.808,5.797-7.791,8.851c1.016,3.054,6.301,4.161,11.54,2.417c5.241-1.744,8.81-5.797,7.793-8.85
			C2493.437,289.797,2488.151,288.689,2482.911,290.433z"/>
	</g>
	
		<rect x="2483.786" y="284.255" transform="matrix(-0.9985 -0.0544 0.0544 -0.9985 4949.7583 727.348)" class="st0" width="2" height="24"/>
</g>
<g>
	<circle class="st0" cx="1526.442" cy="1876.505" r="7"/>
	
		<rect x="1525.255" y="1864.255" transform="matrix(0.9566 -0.2915 0.2915 0.9566 -480.6603 526.4114)" class="st0" width="2" height="24"/>
</g>
<g>
	<circle class="st0" cx="1644.437" cy="1831.505" r="7"/>
	
		<rect x="1643.255" y="1819.25" transform="matrix(0.9635 -0.2676 0.2676 0.9635 -430.1025 506.8284)" class="st0" width="2" height="24"/>
</g>
<g>
	<circle class="st0" cx="1102.442" cy="2465.505" r="5"/>
	
		<rect x="1100.255" y="2451.256" transform="matrix(0.935 -0.3546 0.3546 0.935 -802.2086 550.5825)" class="st0" width="2" height="25.999"/>
</g>
<g>
	<circle class="st0" cx="1335.442" cy="2926.505" r="5"/>
	
		<rect x="1334.255" y="2913.256" transform="matrix(0.935 -0.3546 0.3546 0.935 -950.8181 663.5696)" class="st0" width="2" height="25.999"/>
</g>
<g>
	<circle class="st0" cx="1028.442" cy="2500.505" r="8"/>
	
		<rect x="1027.255" y="2487.256" transform="matrix(0.935 -0.3546 0.3546 0.935 -819.7162 527.0377)" class="st0" width="2" height="25.999"/>
</g>
<g>
	<circle class="st0" cx="1915.442" cy="2231.505" r="5"/>
	
		<rect x="1914.255" y="2220.255" transform="matrix(0.9561 -0.293 0.293 0.9561 -569.6814 659.0618)" class="st0" width="2" height="22"/>
</g>
<g>
	<circle class="st0" cx="1858.442" cy="2796.505" r="5"/>
	
		<rect x="1857.255" y="2785.255" transform="matrix(0.9561 -0.293 0.293 0.9561 -737.7209 667.1558)" class="st0" width="2" height="22"/>
</g>
<g>
	<circle class="st0" cx="2264.311" cy="2063.468" r="5"/>
	
		<rect x="2263.283" y="2052.156" transform="matrix(0.9672 0.2539 -0.2539 0.9672 598.0149 -507.2798)" class="st0" width="2" height="22"/>
</g>
<g>
	<circle class="st0" cx="2853.442" cy="1621.505" r="5"/>
	
		<rect x="2852.255" y="1610.255" transform="matrix(0.9561 -0.293 0.293 0.9561 -349.7961 907.1151)" class="st0" width="2" height="22"/>
</g>
<g>
	<circle class="st0" cx="2901.442" cy="1521.505" r="5"/>
	
		<rect x="2900.255" y="1510.255" transform="matrix(0.9561 -0.293 0.293 0.9561 -318.3909 916.79)" class="st0" width="2" height="22"/>
</g>
<g>
	<circle class="st0" cx="2999.442" cy="2189.505" r="5"/>
	
		<rect x="2998.255" y="2178.255" transform="matrix(0.9561 -0.293 0.293 0.9561 -509.8062 974.8173)" class="st0" width="2" height="22"/>
</g>
<g>
	
		<rect x="487.843" y="1478.966" transform="matrix(0.979 -0.2041 0.2041 0.979 -293.3909 131.0872)" class="st0" width="2" height="18"/>
	
		<rect x="491.861" y="1475.14" transform="matrix(0.979 -0.2039 0.2039 0.979 -292.9158 131.7125)" class="st0" width="2" height="25"/>
	
		<rect x="495.675" y="1472.335" transform="matrix(0.979 -0.2041 0.2041 0.979 -292.8931 132.6512)" class="st0" width="2" height="28"/>
	
		<rect x="499.591" y="1469.519" transform="matrix(0.979 -0.2041 0.2041 0.979 -292.6442 133.4332)" class="st0" width="2" height="32"/>
	
		<rect x="503.507" y="1467.703" transform="matrix(0.979 -0.2041 0.2041 0.979 -292.3951 134.2153)" class="st0" width="2" height="34"/>
	
		<rect x="507.423" y="1465.887" transform="matrix(0.979 -0.2041 0.2041 0.979 -292.1462 134.9973)" class="st0" width="2" height="36"/>
	
		<rect x="511.339" y="1465.071" transform="matrix(0.979 -0.2041 0.2041 0.979 -291.8973 135.7793)" class="st0" width="2" height="36"/>
	
		<rect x="515.255" y="1464.255" transform="matrix(0.979 -0.2041 0.2041 0.979 -291.6483 136.5613)" class="st0" width="2" height="36"/>
	
		<rect x="519.171" y="1463.439" transform="matrix(0.979 -0.2041 0.2041 0.979 -291.3994 137.3434)" class="st0" width="2" height="36"/>
	
		<rect x="523.087" y="1462.623" transform="matrix(0.979 -0.2041 0.2041 0.979 -291.1504 138.1254)" class="st0" width="2" height="36"/>
	
		<rect x="527.002" y="1462.807" transform="matrix(0.979 -0.2041 0.2041 0.979 -290.9015 138.9073)" class="st0" width="2" height="34"/>
	
		<rect x="530.918" y="1462.991" transform="matrix(0.979 -0.2041 0.2041 0.979 -290.6526 139.6893)" class="st0" width="2" height="32"/>
	
		<rect x="534.834" y="1464.175" transform="matrix(0.979 -0.2041 0.2041 0.979 -290.4036 140.4714)" class="st0" width="2" height="28"/>
	
		<rect x="538.852" y="1465.349" transform="matrix(0.979 -0.2039 0.2039 0.979 -289.933 141.0862)" class="st0" width="2" height="25"/>
	
		<rect x="542.666" y="1467.543" transform="matrix(0.979 -0.2039 0.2039 0.979 -289.5868 141.8364)" class="st0" width="2" height="18"/>
</g>
<g>
	<circle class="st0" cx="1093.442" cy="1271.505" r="5"/>
	
		<rect x="1092.255" y="1258.255" transform="matrix(0.9694 -0.2453 0.2453 0.9694 -278.4858 307.0856)" class="st0" width="2" height="26"/>
</g>
<g>
	<circle class="st0" cx="1197.442" cy="1609.505" r="5"/>
	
		<rect x="1196.255" y="1596.255" transform="matrix(0.9694 -0.2454 0.2454 0.9694 -358.311 343.0261)" class="st0" width="2" height="26"/>
</g>
<g>
	<circle class="st0" cx="1210.337" cy="1500.481" r="5"/>
	
		<rect x="1209.272" y="1487.176" transform="matrix(0.9824 0.1865 -0.1865 0.9824 301.0667 -199.4218)" class="st0" width="2" height="26"/>
</g>
<g>
	<circle class="st0" cx="1519.483" cy="1478.444" r="5"/>
	
		<rect x="1518.28" y="1465.207" transform="matrix(0.9516 -0.3074 0.3074 0.9516 -380.7908 538.5057)" class="st0" width="2" height="26"/>
</g>
<g>
	<circle class="st0" cx="994.442" cy="1829.505" r="5"/>
	
		<rect x="993.255" y="1816.255" transform="matrix(0.9694 -0.2456 0.2456 0.9694 -418.7786 300.1857)" class="st0" width="2" height="26"/>
</g>
<g>
	<circle class="st0" cx="1129.442" cy="714.505" r="5"/>
	
		<rect x="1128.255" y="701.255" transform="matrix(0.9694 -0.2453 0.2453 0.9694 -140.726 298.8933)" class="st0" width="2" height="26"/>
</g>
<g>
	<circle class="st0" cx="1784.442" cy="302.505" r="5"/>
	
		<rect x="1783.255" y="289.255" transform="matrix(0.9694 -0.2453 0.2453 0.9694 -19.6305 446.8962)" class="st0" width="2.001" height="26"/>
</g>
<g>
	<circle class="st0" cx="1114.442" cy="832.505" r="5"/>
	
		<rect x="1113.255" y="819.255" transform="matrix(0.9694 -0.2453 0.2453 0.9694 -170.1357 298.8198)" class="st0" width="2" height="26"/>
</g>
<g>
	<circle class="st0" cx="525.442" cy="685.505" r="5"/>
	
		<rect x="524.255" y="672.255" transform="matrix(0.9694 -0.2453 0.2453 0.9694 -152.0723 149.816)" class="st0" width="2" height="26"/>
</g>
<g>
	<circle class="st0" cx="857.442" cy="777.505" r="5"/>
	
		<rect x="856.255" y="764.255" transform="matrix(0.9694 -0.2453 0.2453 0.9694 -164.4968 234.0839)" class="st0" width="2" height="26"/>
</g>
<g>
	<circle class="st0" cx="879.442" cy="227.505" r="6"/>
	
		<rect x="877.255" y="214.255" transform="matrix(0.9795 -0.2013 0.2013 0.9795 -27.8605 181.5932)" class="st0" width="3" height="27"/>
</g>
</svg>
