<?xml version="1.0" encoding="utf-8"?>
<!DOCTYPE svg PUBLIC "-//W3C//DTD SVG 1.1//EN" "http://www.w3.org/Graphics/SVG/1.1/DTD/svg11.dtd">
<svg version="1.1" id="layer4" xmlns="http://www.w3.org/2000/svg" xmlns:xlink="http://www.w3.org/1999/xlink" x="0px"
	 y="0px" width="3344px" height="3344px" viewBox="0 0 3344 3344" style="enable-background:new 0 0 3344 3344;"
	 xml:space="preserve">
<style type="text/css">
<![CDATA[
	.st0{fill:#5A5A5A;}
]]>
</style>
<circle class="st0" cx="2150.442" cy="2625.505" r="5"/>
<circle class="st0" cx="2346.442" cy="2487.505" r="7"/>
<g>
	<circle class="st0" cx="1159.442" cy="2309.505" r="10"/>
	<g>
		<path class="st0" d="M1159.442,2326.005c-9.098,0-16.5-7.402-16.5-16.5s7.402-16.5,16.5-16.5s16.5,7.402,16.5,16.5
			S1168.541,2326.005,1159.442,2326.005z M1159.442,2295.005c-7.995,0-14.5,6.505-14.5,14.5s6.505,14.5,14.5,14.5
			s14.5-6.505,14.5-14.5S1167.438,2295.005,1159.442,2295.005z"/>
	</g>
	<circle class="st0" cx="1159.442" cy="2309.505" r="10"/>
</g>
<g>
	<circle class="st0" cx="535.442" cy="1176.505" r="2.5"/>
	<circle class="st0" cx="536.442" cy="1186.505" r="2.5"/>
	<circle class="st0" cx="546.442" cy="1188.505" r="2.5"/>
	<circle class="st0" cx="553.442" cy="1181.505" r="2.5"/>
	<circle class="st0" cx="551.442" cy="1172.505" r="2.5"/>
	<circle class="st0" cx="542.442" cy="1170.505" r="2.5"/>
	<circle class="st0" cx="544.442" cy="1179.505" r="2.5"/>
</g>
<g>
	<circle class="st0" cx="974.442" cy="1194.505" r="2.5"/>
	<circle class="st0" cx="975.442" cy="1204.505" r="2.5"/>
	<circle class="st0" cx="985.442" cy="1206.505" r="2.5"/>
	<circle class="st0" cx="992.442" cy="1199.505" r="2.5"/>
	<circle class="st0" cx="990.442" cy="1190.505" r="2.5"/>
	<circle class="st0" cx="981.442" cy="1188.505" r="2.5"/>
	<circle class="st0" cx="983.442" cy="1197.505" r="2.5"/>
</g>
<g>
	<circle class="st0" cx="2624.442" cy="1609.505" r="2.5"/>
	<circle class="st0" cx="2625.442" cy="1619.505" r="2.5"/>
	<circle class="st0" cx="2635.442" cy="1621.505" r="2.5"/>
	<circle class="st0" cx="2642.442" cy="1614.505" r="2.5"/>
	<circle class="st0" cx="2640.442" cy="1605.505" r="2.5"/>
	<circle class="st0" cx="2631.442" cy="1603.505" r="2.5"/>
	<circle class="st0" cx="2633.442" cy="1612.505" r="2.5"/>
</g>
<g>
	<circle class="st0" cx="2789.442" cy="1490.505" r="2.5"/>
	<circle class="st0" cx="2790.442" cy="1500.505" r="2.5"/>
	<circle class="st0" cx="2800.442" cy="1502.505" r="2.5"/>
	<circle class="st0" cx="2807.442" cy="1495.505" r="2.5"/>
	<circle class="st0" cx="2805.442" cy="1486.505" r="2.5"/>
	<circle class="st0" cx="2796.442" cy="1484.505" r="2.5"/>
	<circle class="st0" cx="2798.442" cy="1493.505" r="2.5"/>
</g>
<g>
	<circle class="st0" cx="1112.442" cy="1017.505" r="2.5"/>
	<circle class="st0" cx="1113.442" cy="1027.505" r="2.5"/>
	<circle class="st0" cx="1123.442" cy="1029.505" r="2.5"/>
	<circle class="st0" cx="1130.442" cy="1022.505" r="2.5"/>
	<circle class="st0" cx="1128.442" cy="1013.505" r="2.5"/>
	<circle class="st0" cx="1119.442" cy="1011.505" r="2.5"/>
	<circle class="st0" cx="1121.442" cy="1020.505" r="2.5"/>
</g>
<g>
	<circle class="st0" cx="704.442" cy="789.505" r="2.5"/>
	<circle class="st0" cx="705.442" cy="799.505" r="2.5"/>
	<circle class="st0" cx="715.442" cy="801.505" r="2.5"/>
	<circle class="st0" cx="722.442" cy="794.505" r="2.5"/>
	<circle class="st0" cx="720.442" cy="785.505" r="2.5"/>
	<circle class="st0" cx="711.442" cy="783.505" r="2.5"/>
	<circle class="st0" cx="713.442" cy="792.505" r="2.5"/>
</g>
<g>
	<circle class="st0" cx="1138.442" cy="1761.505" r="5"/>
	<g>
		<path class="st0" d="M1138.442,1772.172c-6.065,0-11-4.935-11-11s4.935-11,11-11s11,4.935,11,11
			S1144.508,1772.172,1138.442,1772.172z M1138.442,1752.172c-4.963,0-9,4.038-9,9s4.037,9,9,9s9-4.038,9-9
			S1143.405,1752.172,1138.442,1752.172z"/>
	</g>
</g>
<g>
	<circle class="st0" cx="805.442" cy="1591.505" r="5"/>
	<g>
		<path class="st0" d="M805.442,1602.172c-6.065,0-11-4.935-11-11s4.935-11,11-11s11,4.935,11,11S811.508,1602.172,805.442,1602.172
			z M805.442,1582.172c-4.963,0-9,4.038-9,9s4.037,9,9,9s9-4.038,9-9S810.405,1582.172,805.442,1582.172z"/>
	</g>
</g>
<g>
	<circle class="st0" cx="563.442" cy="942.505" r="5"/>
	<g>
		<path class="st0" d="M563.442,953.172c-6.065,0-11-4.935-11-11s4.935-11,11-11s11,4.935,11,11S569.508,953.172,563.442,953.172z
			 M563.442,933.172c-4.963,0-9,4.038-9,9s4.037,9,9,9s9-4.038,9-9S568.405,933.172,563.442,933.172z"/>
	</g>
</g>
<g>
	<circle class="st0" cx="1228.442" cy="2135.505" r="5"/>
	<g>
		<path class="st0" d="M1228.442,2146.172c-6.065,0-11-4.935-11-11s4.935-11,11-11s11,4.935,11,11
			S1234.508,2146.172,1228.442,2146.172z M1228.442,2126.172c-4.963,0-9,4.038-9,9s4.037,9,9,9s9-4.038,9-9
			S1233.405,2126.172,1228.442,2126.172z"/>
	</g>
</g>
<g>
	<circle class="st0" cx="1930.442" cy="2344.505" r="5"/>
	<g>
		<path class="st0" d="M1930.442,2355.172c-6.065,0-11-4.935-11-11s4.935-11,11-11s11,4.935,11,11
			S1936.508,2355.172,1930.442,2355.172z M1930.442,2335.172c-4.963,0-9,4.038-9,9s4.037,9,9,9s9-4.038,9-9
			S1935.405,2335.172,1930.442,2335.172z"/>
	</g>
</g>
<g>
	
		<rect x="556.678" y="1474.257" transform="matrix(0.9789 -0.2043 0.2043 0.9789 -290.7314 145.1504)" class="st0" width="1.644" height="12.27"/>
	
		<rect x="559.966" y="1471.534" transform="matrix(0.9789 -0.2044 0.2044 0.9789 -290.6741 145.8668)" class="st0" width="1.644" height="17.041"/>
	
		<rect x="563.116" y="1469.508" transform="matrix(0.9789 -0.2044 0.2044 0.9789 -290.4026 146.4895)" class="st0" width="1.644" height="19.085"/>
	
		<rect x="566.334" y="1467.473" transform="matrix(0.9789 -0.2043 0.2043 0.9789 -290.1165 147.0809)" class="st0" width="1.644" height="21.812"/>
	
		<rect x="569.552" y="1466.122" transform="matrix(0.9788 -0.2048 0.2048 0.9788 -290.604 148.1726)" class="st0" width="1.645" height="23.175"/>
	
		<rect x="572.771" y="1464.771" transform="matrix(0.979 -0.2038 0.2038 0.979 -288.9341 147.8662)" class="st0" width="1.644" height="24.536"/>
	
		<rect x="575.989" y="1464.099" transform="matrix(0.9788 -0.2049 0.2049 0.9788 -290.2734 149.5154)" class="st0" width="1.644" height="24.537"/>
	
		<rect x="579.208" y="1463.429" transform="matrix(0.979 -0.2038 0.2038 0.979 -288.5257 149.1497)" class="st0" width="1.644" height="24.537"/>
	
		<rect x="582.426" y="1462.758" transform="matrix(0.979 -0.2038 0.2038 0.979 -288.3215 149.7914)" class="st0" width="1.644" height="24.538"/>
	
		<rect x="585.645" y="1462.088" transform="matrix(0.9789 -0.2043 0.2043 0.9789 -288.8066 150.8889)" class="st0" width="1.645" height="24.536"/>
	
		<rect x="588.863" y="1462.098" transform="matrix(0.979 -0.2038 0.2038 0.979 -287.913 151.0748)" class="st0" width="1.644" height="23.175"/>
	
		<rect x="592.082" y="1462.109" transform="matrix(0.979 -0.2039 0.2039 0.979 -287.8689 151.8234)" class="st0" width="1.643" height="21.811"/>
	
		<rect x="595.3" y="1462.802" transform="matrix(0.979 -0.2038 0.2038 0.979 -287.5048 152.3584)" class="st0" width="1.644" height="19.085"/>
	
		<rect x="598.589" y="1463.487" transform="matrix(0.979 -0.2038 0.2038 0.979 -287.447 153.0751)" class="st0" width="1.643" height="17.04"/>
	
		<rect x="601.737" y="1464.869" transform="matrix(0.979 -0.2038 0.2038 0.979 -287.0964 153.6418)" class="st0" width="1.644" height="12.269"/>
</g>
<g>
	<circle class="st0" cx="693.442" cy="727.505" r="5"/>
	
		<rect x="692.255" y="714.255" transform="matrix(0.9694 -0.2453 0.2453 0.9694 -157.242 192.3184)" class="st0" width="2" height="26"/>
</g>
</svg>
