<?xml version="1.0" encoding="utf-8"?>
<!DOCTYPE svg PUBLIC "-//W3C//DTD SVG 1.1//EN" "http://www.w3.org/Graphics/SVG/1.1/DTD/svg11.dtd">
<svg version="1.1" id="layer5" xmlns="http://www.w3.org/2000/svg" xmlns:xlink="http://www.w3.org/1999/xlink" x="0px"
	 y="0px" width="3344px" height="3344px" viewBox="0 0 3344 3344" style="enable-background:new 0 0 3344 3344;"
	 xml:space="preserve">
<style type="text/css">
<![CDATA[
	.st0{fill:#171F2B;}
]]>
</style>
<circle class="st0" cx="1195.442" cy="2757.505" r="5"/>
<circle class="st0" cx="2405.442" cy="2461.505" r="5"/>
<circle class="st0" cx="1489.442" cy="1958.505" r="5"/>
<circle class="st0" cx="1270.442" cy="1942.505" r="5"/>
<circle class="st0" cx="1232.442" cy="1999.505" r="5"/>
<circle class="st0" cx="1472.442" cy="1191.505" r="5"/>
<circle class="st0" cx="1361.442" cy="587.505" r="5"/>
<g>
	<circle class="st0" cx="1400.442" cy="705.505" r="2.5"/>
	<circle class="st0" cx="1401.442" cy="715.505" r="2.5"/>
	<circle class="st0" cx="1411.442" cy="717.505" r="2.5"/>
	<circle class="st0" cx="1418.442" cy="710.505" r="2.5"/>
	<circle class="st0" cx="1416.442" cy="701.505" r="2.5"/>
	<circle class="st0" cx="1407.442" cy="699.505" r="2.5"/>
	<circle class="st0" cx="1409.442" cy="708.505" r="2.5"/>
</g>
<circle class="st0" cx="390.442" cy="1800.505" r="5"/>
<circle class="st0" cx="1347.442" cy="2421.505" r="5"/>
<circle class="st0" cx="478.442" cy="1992.505" r="5"/>
<circle class="st0" cx="726.442" cy="2134.505" r="5"/>
<circle class="st0" cx="767.442" cy="1914.505" r="8"/>
<circle class="st0" cx="968.442" cy="1787.505" r="8"/>
<circle class="st0" cx="1071.442" cy="1800.505" r="8"/>
<circle class="st0" cx="1474.442" cy="2275.505" r="8"/>
<circle class="st0" cx="1534.442" cy="2318.505" r="8"/>
<circle class="st0" cx="1206.442" cy="2377.505" r="8"/>
<circle class="st0" cx="1689.442" cy="2183.505" r="8"/>
<circle class="st0" cx="1342.442" cy="1864.505" r="5"/>
<circle class="st0" cx="1957.442" cy="1380.505" r="5"/>
<g>
	<circle class="st0" cx="1632.442" cy="787.505" r="5"/>
	<g>
		<path class="st0" d="M1632.442,798.172c-6.065,0-11-4.935-11-11s4.935-11,11-11s11,4.935,11,11S1638.508,798.172,1632.442,798.172
			z M1632.442,778.172c-4.963,0-9,4.038-9,9s4.037,9,9,9s9-4.038,9-9S1637.405,778.172,1632.442,778.172z"/>
	</g>
</g>
<g>
	<circle class="st0" cx="1578.442" cy="644.505" r="5"/>
	<g>
		<path class="st0" d="M1578.442,655.172c-6.065,0-11-4.935-11-11s4.935-11,11-11s11,4.935,11,11S1584.508,655.172,1578.442,655.172
			z M1578.442,635.172c-4.963,0-9,4.038-9,9s4.037,9,9,9s9-4.038,9-9S1583.405,635.172,1578.442,635.172z"/>
	</g>
</g>
<g>
	<circle class="st0" cx="992.402" cy="2589.501" r="8"/>
	
		<rect x="991.258" y="2576.225" transform="matrix(0.9804 -0.1968 0.1968 0.9804 -490.0908 245.8716)" class="st0" width="2" height="25.999"/>
</g>
<g>
	<circle class="st0" cx="1820.311" cy="2301.467" r="5"/>
	
		<rect x="1819.283" y="2290.157" transform="matrix(0.9674 0.2534 -0.2534 0.9674 642.6229 -386.1968)" class="st0" width="2" height="21.999"/>
</g>
<g>
	<circle class="st0" cx="2126.442" cy="2283.505" r="5"/>
	
		<rect x="2125.255" y="2272.255" transform="matrix(0.9561 -0.293 0.293 0.9561 -575.6575 723.1641)" class="st0" width="2" height="22"/>
</g>
<g>
	<circle class="st0" cx="2953.442" cy="2306.505" r="5"/>
	
		<rect x="2952.255" y="2295.255" transform="matrix(0.9561 -0.293 0.293 0.9561 -546.1042 966.4741)" class="st0" width="2" height="22"/>
</g>
<g>
	<circle class="st0" cx="1749.442" cy="2301.505" r="5"/>
	
		<rect x="1748.255" y="2290.255" transform="matrix(0.9561 -0.293 0.293 0.9561 -597.4753 613.4978)" class="st0" width="2" height="22"/>
</g>
<g>
	<circle class="st0" cx="1140.442" cy="1752.505" r="8"/>
	
		<rect x="1139.255" y="1738.255" transform="matrix(0.9751 -0.222 0.222 0.9751 -360.3623 296.8961)" class="st0" width="3.001" height="27"/>
</g>
<g>
	<circle class="st0" cx="1327.442" cy="1175.505" r="5"/>
	
		<rect x="1326.255" y="1162.255" transform="matrix(0.9694 -0.2454 0.2454 0.9694 -247.8289 361.6573)" class="st0" width="2" height="26"/>
</g>
<g>
	<circle class="st0" cx="1154.442" cy="1522.505" r="2.5"/>
	<circle class="st0" cx="1155.442" cy="1532.505" r="2.5"/>
	<circle class="st0" cx="1165.442" cy="1534.505" r="2.5"/>
	<circle class="st0" cx="1172.442" cy="1527.505" r="2.5"/>
	<circle class="st0" cx="1170.442" cy="1518.505" r="2.5"/>
	<circle class="st0" cx="1161.442" cy="1516.505" r="2.5"/>
	<circle class="st0" cx="1163.442" cy="1525.505" r="2.5"/>
</g>
</svg>
